o 
v -0.7470250634614755 0.13280429229601554 0
v -0.8093810586396981 0.0757902926252716 0.05587900057435036
v -0.7470250634614755 0.09973829523190192 0.07982800155878067
v -0.7470250634614755 0.019911292050921237 0.1128930002450943
v -0.7470250634614755 0.09973829523190192 0.07982800155878067
v -0.8093810586396981 0.0757902926252716 0.05587900057435036
v -0.8093810586396981 0.0757902926252716 0.05587900057435036
v -0.7470250634614755 0.13280429229601554 0
v -0.8093810586396981 0.09893629238470725 0
v -0.8093810586396981 0.019911292050921237 0.07902500033378601
v -0.7470250634614755 0.019911292050921237 0.1128930002450943
v -0.8093810586396981 0.0757902926252716 0.05587900057435036
v -0.7470250634614755 0.13280429229601554 0
v -0.8093810586396981 0.0757902926252716 -0.05587900057435036
v -0.8093810586396981 0.09893629238470725 0
v -0.8093810586396981 0.0757902926252716 -0.05587900057435036
v -0.7470250634614755 0.13280429229601554 0
v -0.7470250634614755 0.09973829523190192 -0.07982700318098068
v -0.7470250634614755 0.019911292050921237 -0.1128930002450943
v -0.8093810586396981 0.0757902926252716 -0.05587900057435036
v -0.7470250634614755 0.09973829523190192 -0.07982700318098068
v -0.8093810586396981 0.0757902926252716 0.05587900057435036
v -0.8093810586396981 0.09893629238470725 0
v -0.8433030752603341 0.019911292050921237 0
v -0.8093810586396981 0.019911292050921237 0.07902500033378601
v -0.8093810586396981 0.0757902926252716 0.05587900057435036
v -0.8433030752603341 0.019911292050921237 0
v -0.8093810586396981 0.09893629238470725 0
v -0.8093810586396981 0.0757902926252716 -0.05587900057435036
v -0.8433030752603341 0.019911292050921237 0
v -0.8093810586396981 -0.03596770852342912 0.05587900057435036
v -0.7470250634614755 0.019911292050921237 0.1128930002450943
v -0.8093810586396981 0.019911292050921237 0.07902500033378601
v -0.8093810586396981 -0.03596770852342912 0.05587900057435036
v -0.8093810586396981 0.019911292050921237 0.07902500033378601
v -0.8433030752603341 0.019911292050921237 0
v -0.7470250634614755 0.019911292050921237 0.1128930002450943
v -0.8093810586396981 -0.03596770852342912 0.05587900057435036
v -0.7470250634614755 -0.059915711130059446 0.07982800155878067
v -0.7470250634614755 -0.09298170819417306 0
v -0.7470250634614755 -0.059915711130059446 0.07982800155878067
v -0.8093810586396981 -0.03596770852342912 0.05587900057435036
v -0.8093810586396981 0.0757902926252716 -0.05587900057435036
v -0.7470250634614755 0.019911292050921237 -0.1128930002450943
v -0.8093810586396981 0.019911292050921237 -0.07902500033378601
v -0.8093810586396981 0.0757902926252716 -0.05587900057435036
v -0.8093810586396981 0.019911292050921237 -0.07902500033378601
v -0.8433030752603341 0.019911292050921237 0
v -0.8093810586396981 -0.059113708282864774 0
v -0.7470250634614755 -0.09298170819417306 0
v -0.8093810586396981 -0.03596770852342912 0.05587900057435036
v -0.8093810586396981 -0.059113708282864774 0
v -0.8093810586396981 -0.03596770852342912 0.05587900057435036
v -0.8433030752603341 0.019911292050921237 0
v -0.8093810586396981 -0.03596770852342912 -0.05587900057435036
v -0.7470250634614755 -0.09298170819417306 0
v -0.8093810586396981 -0.059113708282864774 0
v -0.8093810586396981 -0.03596770852342912 -0.05587900057435036
v -0.8093810586396981 -0.059113708282864774 0
v -0.8433030752603341 0.019911292050921237 0
v -0.8093810586396981 0.019911292050921237 -0.07902500033378601
v -0.8093810586396981 -0.03596770852342912 -0.05587900057435036
v -0.8433030752603341 0.019911292050921237 0
v -0.8093810586396981 0.019911292050921237 -0.07902500033378601
v -0.7470250634614755 0.019911292050921237 -0.1128930002450943
v -0.8093810586396981 -0.03596770852342912 -0.05587900057435036
v -0.7470250634614755 -0.09298170819417306 0
v -0.8093810586396981 -0.03596770852342912 -0.05587900057435036
v -0.7470250634614755 -0.059915711130059446 -0.07982700318098068
v -0.7470250634614755 0.019911292050921237 -0.1128930002450943
v -0.7470250634614755 -0.059915711130059446 -0.07982700318098068
v -0.8093810586396981 -0.03596770852342912 -0.05587900057435036
v 0.21123094277936927 0.0757902926252716 -0.05587900057435036
v 0.1488749476011466 0.13280429229601554 0
v 0.21123094277936927 0.09893629238470725 0
v 0.21123094277936927 0.09893629238470725 0
v 0.1488749476011466 0.13280429229601554 0
v 0.21123094277936927 0.0757902926252716 0.05587900057435036
v 0.21123094277936927 0.0757902926252716 -0.05587900057435036
v 0.21123094277936927 0.09893629238470725 0
v 0.24515295940000525 0.019911292050921237 0
v 0.21123094277936927 0.09893629238470725 0
v 0.21123094277936927 0.0757902926252716 0.05587900057435036
v 0.24515295940000525 0.019911292050921237 0
v 0.1488749476011466 0.13280429229601554 0
v 0.21123094277936927 0.0757902926252716 -0.05587900057435036
v 0.1488749476011466 0.09973829523190192 -0.07982800155878067
v 0.1488749476011466 0.09973829523190192 -0.07982800155878067
v 0.08210794048864356 0.14073129281862906 0
v 0.1488749476011466 0.13280429229601554 0
v 0.08210794048864356 0.14073129281862906 0
v 0.1488749476011466 0.09973829523190192 -0.07982800155878067
v 0.08210794048864356 0.10534429088696173 -0.08543200045824051
v 0.08210794048864356 0.10534429088696173 -0.08543200045824051
v 0.1488749476011466 0.09973829523190192 -0.07982800155878067
v 0.08210794048864356 0.019911292050921237 -0.12082000076770782
v 0.08210794048864356 0.14073129281862906 0
v 0.1488749476011466 0.09973829523190192 0.07982800155878067
v 0.1488749476011466 0.13280429229601554 0
v 0.1488749476011466 0.13280429229601554 0
v 0.1488749476011466 0.09973829523190192 0.07982800155878067
v 0.21123094277936927 0.0757902926252716 0.05587900057435036
v 0.1488749476011466 0.09973829523190192 0.07982800155878067
v 0.08210794048864356 0.14073129281862906 0
v 0.08210794048864356 0.10534429088696173 0.08543200045824051
v 0.08210794048864356 0.019911292050921237 0.12082000076770782
v 0.1488749476011466 0.09973829523190192 0.07982800155878067
v 0.08210794048864356 0.10534429088696173 0.08543200045824051
v 0.1488749476011466 0.09973829523190192 -0.07982800155878067
v 0.1488749476011466 0.019911292050921237 -0.1128930002450943
v 0.08210794048864356 0.019911292050921237 -0.12082000076770782
v 0.21123094277936927 0.0757902926252716 -0.05587900057435036
v 0.1488749476011466 0.019911292050921237 -0.1128930002450943
v 0.1488749476011466 0.09973829523190192 -0.07982800155878067
v 0.1488749476011466 0.019911292050921237 -0.1128930002450943
v 0.21123094277936927 0.0757902926252716 -0.05587900057435036
v 0.21123094277936927 0.019911292050921237 -0.07902500033378601
v 0.21123094277936927 0.019911292050921237 -0.07902500033378601
v 0.21123094277936927 0.0757902926252716 -0.05587900057435036
v 0.24515295940000525 0.019911292050921237 0
v 0.1488749476011466 -0.059916709507859434 -0.07982800155878067
v 0.08210794048864356 0.019911292050921237 -0.12082000076770782
v 0.1488749476011466 0.019911292050921237 -0.1128930002450943
v 0.08210794048864356 0.019911292050921237 -0.12082000076770782
v 0.1488749476011466 -0.059916709507859434 -0.07982800155878067
v 0.08210794048864356 -0.06552170678511926 -0.08543200045824051
v 0.21123094277936927 -0.03596770852342912 -0.05587900057435036
v 0.1488749476011466 0.019911292050921237 -0.1128930002450943
v 0.21123094277936927 0.019911292050921237 -0.07902500033378601
v 0.1488749476011466 0.019911292050921237 -0.1128930002450943
v 0.21123094277936927 -0.03596770852342912 -0.05587900057435036
v 0.1488749476011466 -0.059916709507859434 -0.07982800155878067
v 0.21123094277936927 -0.03596770852342912 -0.05587900057435036
v 0.21123094277936927 0.019911292050921237 -0.07902500033378601
v 0.24515295940000525 0.019911292050921237 0
v 0.08210794048864356 -0.06552170678511926 -0.08543200045824051
v 0.1488749476011466 -0.059916709507859434 -0.07982800155878067
v 0.08210794048864356 -0.10090870871678659 0
v 0.21123094277936927 -0.059113708282864774 0
v 0.21123094277936927 -0.03596770852342912 -0.05587900057435036
v 0.24515295940000525 0.019911292050921237 0
v 0.21123094277936927 -0.03596770852342912 -0.05587900057435036
v 0.1488749476011466 -0.09298170819417306 0
v 0.1488749476011466 -0.059916709507859434 -0.07982800155878067
v 0.1488749476011466 -0.09298170819417306 0
v 0.21123094277936927 -0.03596770852342912 -0.05587900057435036
v 0.21123094277936927 -0.059113708282864774 0
v 0.1488749476011466 -0.059916709507859434 -0.07982800155878067
v 0.1488749476011466 -0.09298170819417306 0
v 0.08210794048864356 -0.10090870871678659 0
v 0.21123094277936927 -0.03596770852342912 0.05587900057435036
v 0.21123094277936927 -0.059113708282864774 0
v 0.24515295940000525 0.019911292050921237 0
v 0.21123094277936927 -0.03596770852342912 0.05587900057435036
v 0.1488749476011466 -0.09298170819417306 0
v 0.21123094277936927 -0.059113708282864774 0
v 0.21123094277936927 0.019911292050921237 0.07902500033378601
v 0.21123094277936927 -0.03596770852342912 0.05587900057435036
v 0.24515295940000525 0.019911292050921237 0
v 0.21123094277936927 0.0757902926252716 0.05587900057435036
v 0.21123094277936927 0.019911292050921237 0.07902500033378601
v 0.24515295940000525 0.019911292050921237 0
v 0.1488749476011466 -0.059916709507859434 0.07982800155878067
v 0.08210794048864356 -0.10090870871678659 0
v 0.1488749476011466 -0.09298170819417306 0
v 0.1488749476011466 -0.09298170819417306 0
v 0.21123094277936927 -0.03596770852342912 0.05587900057435036
v 0.1488749476011466 -0.059916709507859434 0.07982800155878067
v 0.08210794048864356 -0.10090870871678659 0
v 0.1488749476011466 -0.059916709507859434 0.07982800155878067
v 0.08210794048864356 -0.06552170678511926 0.08543200045824051
v 0.08210794048864356 -0.06552170678511926 0.08543200045824051
v 0.1488749476011466 -0.059916709507859434 0.07982800155878067
v 0.08210794048864356 0.019911292050921237 0.12082000076770782
v 0.21123094277936927 0.0757902926252716 0.05587900057435036
v 0.1488749476011466 0.019911292050921237 0.1128930002450943
v 0.21123094277936927 0.019911292050921237 0.07902500033378601
v 0.1488749476011466 0.019911292050921237 0.1128930002450943
v 0.21123094277936927 -0.03596770852342912 0.05587900057435036
v 0.21123094277936927 0.019911292050921237 0.07902500033378601
v 0.21123094277936927 -0.03596770852342912 0.05587900057435036
v 0.1488749476011466 0.019911292050921237 0.1128930002450943
v 0.1488749476011466 -0.059916709507859434 0.07982800155878067
v 0.1488749476011466 -0.059916709507859434 0.07982800155878067
v 0.1488749476011466 0.019911292050921237 0.1128930002450943
v 0.08210794048864356 0.019911292050921237 0.12082000076770782
v 0.1488749476011466 0.019911292050921237 0.1128930002450943
v 0.21123094277936927 0.0757902926252716 0.05587900057435036
v 0.1488749476011466 0.09973829523190192 0.07982800155878067
v 0.1488749476011466 0.09973829523190192 0.07982800155878067
v 0.08210794048864356 0.019911292050921237 0.12082000076770782
v 0.1488749476011466 0.019911292050921237 0.1128930002450943
vt 0 0
vt 0 0
vt 0 0
vt 0 0
vt 0 0
vt 0 0
vt 0 0
vt 0 0
vt 0 0
vt 0 0
vt 0 0
vt 0 0
vt 0 0
vt 0 0
vt 0 0
vt 0 0
vt 0 0
vt 0 0
vt 0 0
vt 0 0
vt 0 0
vt 0 0
vt 0 0
vt 0 0
vt 0 0
vt 0 0
vt 0 0
vt 0 0
vt 0 0
vt 0 0
vt 0 0
vt 0 0
vt 0 0
vt 0 0
vt 0 0
vt 0 0
vt 0 0
vt 0 0
vt 0 0
vt 0 0
vt 0 0
vt 0 0
vt 0 0
vt 0 0
vt 0 0
vt 0 0
vt 0 0
vt 0 0
vt 0 0
vt 0 0
vt 0 0
vt 0 0
vt 0 0
vt 0 0
vt 0 0
vt 0 0
vt 0 0
vt 0 0
vt 0 0
vt 0 0
vt 0 0
vt 0 0
vt 0 0
vt 0 0
vt 0 0
vt 0 0
vt 0 0
vt 0 0
vt 0 0
vt 0 0
vt 0 0
vt 0 0
vt 0 0
vt 0 0
vt 0 0
vt 0 0
vt 0 0
vt 0 0
vt 0 0
vt 0 0
vt 0 0
vt 0 0
vt 0 0
vt 0 0
vt 0 0
vt 0 0
vt 0 0
vt 0 0
vt 0 0
vt 0 0
vt 0 0
vt 0 0
vt 0 0
vt 0 0
vt 0 0
vt 0 0
vt 0 0
vt 0 0
vt 0 0
vt 0 0
vt 0 0
vt 0 0
vt 0 0
vt 0 0
vt 0 0
vt 0 0
vt 0 0
vt 0 0
vt 0 0
vt 0 0
vt 0 0
vt 0 0
vt 0 0
vt 0 0
vt 0 0
vt 0 0
vt 0 0
vt 0 0
vt 0 0
vt 0 0
vt 0 0
vt 0 0
vt 0 0
vt 0 0
vt 0 0
vt 0 0
vt 0 0
vt 0 0
vt 0 0
vt 0 0
vt 0 0
vt 0 0
vt 0 0
vt 0 0
vt 0 0
vt 0 0
vt 0 0
vt 0 0
vt 0 0
vt 0 0
vt 0 0
vt 0 0
vt 0 0
vt 0 0
vt 0 0
vt 0 0
vt 0 0
vt 0 0
vt 0 0
vt 0 0
vt 0 0
vt 0 0
vt 0 0
vt 0 0
vt 0 0
vt 0 0
vt 0 0
vt 0 0
vt 0 0
vt 0 0
vt 0 0
vt 0 0
vt 0 0
vt 0 0
vt 0 0
vt 0 0
vt 0 0
vt 0 0
vt 0 0
vt 0 0
vt 0 0
vt 0 0
vt 0 0
vt 0 0
vt 0 0
vt 0 0
vt 0 0
vt 0 0
vt 0 0
vt 0 0
vt 0 0
vt 0 0
vt 0 0
vt 0 0
vt 0 0
vt 0 0
vt 0 0
vt 0 0
vt 0 0
vt 0 0
vt 0 0
vt 0 0
vn -0.4771858896832962 0.8788023111766292 -0.0003529274372978091
vn -0.7006627695704599 0.5045154523589207 0.5045154523589207
vn -0.47747712575356394 0.6212952576602028 0.6212952576602028
vn -0.4771858896832962 -0.0003529274372978091 0.8788023111766292
vn -0.47747712575356394 0.6212952576602028 0.6212952576602028
vn -0.7006627695704599 0.5045154523589207 0.5045154523589207
vn -0.7006627695704599 0.5045154523589207 0.5045154523589207
vn -0.4771858896832962 0.8788023111766292 -0.0003529274372978091
vn -0.7006624683171028 0.7134928037562742 -0.00035281694354026127
vn -0.7006624683171028 -0.00035281694354026127 0.7134928037562742
vn -0.4771858896832962 -0.0003529274372978091 0.8788023111766292
vn -0.7006627695704599 0.5045154523589207 0.5045154523589207
vn -0.4771858896832962 0.8788023111766292 -0.0003529274372978091
vn -0.7007588768895978 0.504584654876445 -0.5043127229444527
vn -0.7006624683171028 0.7134928037562742 -0.00035281694354026127
vn -0.7007588768895978 0.504584654876445 -0.5043127229444527
vn -0.4771858896832962 0.8788023111766292 -0.0003529274372978091
vn -0.47726761692238306 0.6210226438820136 -0.6217286366438524
vn -0.47729996816520875 -0.00035301180992311645 -0.8787403574276946
vn -0.7007588768895978 0.504584654876445 -0.5043127229444527
vn -0.47726761692238306 0.6210226438820136 -0.6217286366438524
vn -0.7006627695704599 0.5045154523589207 0.5045154523589207
vn -0.7006624683171028 0.7134928037562742 -0.00035281694354026127
vn -0.999999875391016 -0.00035299996637678496 -0.00035299996637678496
vn -0.7006624683171028 -0.00035281694354026127 0.7134928037562742
vn -0.7006627695704599 0.5045154523589207 0.5045154523589207
vn -0.999999875391016 -0.00035299996637678496 -0.00035299996637678496
vn -0.7006624683171028 0.7134928037562742 -0.00035281694354026127
vn -0.7007588768895978 0.504584654876445 -0.5043127229444527
vn -0.999999875391016 -0.00035299996637678496 -0.00035299996637678496
vn -0.7007588768895978 -0.5043127229444527 0.504584654876445
vn -0.4771858896832962 -0.0003529274372978091 0.8788023111766292
vn -0.7006624683171028 -0.00035281694354026127 0.7134928037562742
vn -0.7007588768895978 -0.5043127229444527 0.504584654876445
vn -0.7006624683171028 -0.00035281694354026127 0.7134928037562742
vn -0.999999875391016 -0.00035299996637678496 -0.00035299996637678496
vn -0.4771858896832962 -0.0003529274372978091 0.8788023111766292
vn -0.7007588768895978 -0.5043127229444527 0.504584654876445
vn -0.47726761692238306 -0.6217286366438524 0.6210226438820136
vn -0.47729996816520875 -0.8787403574276946 -0.00035301180992311645
vn -0.47726761692238306 -0.6217286366438524 0.6210226438820136
vn -0.7007588768895978 -0.5043127229444527 0.504584654876445
vn -0.7007588768895978 0.504584654876445 -0.5043127229444527
vn -0.47729996816520875 -0.00035301180992311645 -0.8787403574276946
vn -0.7007979004381955 -0.0003528851400673792 -0.7133597817465566
vn -0.7007588768895978 0.504584654876445 -0.5043127229444527
vn -0.7007979004381955 -0.0003528851400673792 -0.7133597817465566
vn -0.999999875391016 -0.00035299996637678496 -0.00035299996637678496
vn -0.7007979004381955 -0.7133597817465566 -0.0003528851400673792
vn -0.47729996816520875 -0.8787403574276946 -0.00035301180992311645
vn -0.7007588768895978 -0.5043127229444527 0.504584654876445
vn -0.7007979004381955 -0.7133597817465566 -0.0003528851400673792
vn -0.7007588768895978 -0.5043127229444527 0.504584654876445
vn -0.999999875391016 -0.00035299996637678496 -0.00035299996637678496
vn -0.7008550237676441 -0.504381916636419 -0.504381916636419
vn -0.47729996816520875 -0.8787403574276946 -0.00035301180992311645
vn -0.7007979004381955 -0.7133597817465566 -0.0003528851400673792
vn -0.7008550237676441 -0.504381916636419 -0.504381916636419
vn -0.7007979004381955 -0.7133597817465566 -0.0003528851400673792
vn -0.999999875391016 -0.00035299996637678496 -0.00035299996637678496
vn -0.7007979004381955 -0.0003528851400673792 -0.7133597817465566
vn -0.7008550237676441 -0.504381916636419 -0.504381916636419
vn -0.999999875391016 -0.00035299996637678496 -0.00035299996637678496
vn -0.7007979004381955 -0.0003528851400673792 -0.7133597817465566
vn -0.47729996816520875 -0.00035301180992311645 -0.8787403574276946
vn -0.7008550237676441 -0.504381916636419 -0.504381916636419
vn -0.47729996816520875 -0.8787403574276946 -0.00035301180992311645
vn -0.7008550237676441 -0.504381916636419 -0.504381916636419
vn -0.4770583836361235 -0.6214560718998927 -0.6214560718998927
vn -0.47729996816520875 -0.00035301180992311645 -0.8787403574276946
vn -0.4770583836361235 -0.6214560718998927 -0.6214560718998927
vn -0.7008550237676441 -0.504381916636419 -0.504381916636419
vn 0.7007588768895978 0.504584654876445 -0.5043127229444527
vn 0.29057935949515906 0.9568508302254936 -0.00035289115442025
vn 0.7006624683171028 0.7134928037562742 -0.00035281694354026127
vn 0.7006624683171028 0.7134928037562742 -0.00035281694354026127
vn 0.29057935949515906 0.9568508302254936 -0.00035289115442025
vn 0.7006627695704599 0.5045154523589207 0.5045154523589207
vn 0.7007588768895978 0.504584654876445 -0.5043127229444527
vn 0.7006624683171028 0.7134928037562742 -0.00035281694354026127
vn 0.999999875391016 -0.00035299996637678496 -0.00035299996637678496
vn 0.7006624683171028 0.7134928037562742 -0.00035281694354026127
vn 0.7006627695704599 0.5045154523589207 0.5045154523589207
vn 0.999999875391016 -0.00035299996637678496 -0.00035299996637678496
vn 0.29057935949515906 0.9568508302254936 -0.00035289115442025
vn 0.7007588768895978 0.504584654876445 -0.5043127229444527
vn 0.2906599439588097 0.6767139131944274 -0.676442958915936
vn 0.2906599439588097 0.6767139131944274 -0.676442958915936
vn 0.11770368643542342 0.9930486985302137 -0.0003529121140923586
vn 0.29057935949515906 0.9568508302254936 -0.00035289115442025
vn 0.11770368643542342 0.9930486985302137 -0.0003529121140923586
vn 0.2906599439588097 0.6767139131944274 -0.676442958915936
vn 0.11776385376389453 0.702322002678283 -0.70205090933681
vn 0.11776385376389453 0.702322002678283 -0.70205090933681
vn 0.2906599439588097 0.6767139131944274 -0.676442958915936
vn 0.11773536558894537 -0.0003530070980081616 -0.9930449431297791
vn 0.11770368643542342 0.9930486985302137 -0.0003529121140923586
vn 0.29060667429609527 0.6765898908698544 0.6765898908698544
vn 0.29057935949515906 0.9568508302254936 -0.00035289115442025
vn 0.29057935949515906 0.9568508302254936 -0.00035289115442025
vn 0.29060667429609527 0.6765898908698544 0.6765898908698544
vn 0.7006627695704599 0.5045154523589207 0.5045154523589207
vn 0.29060667429609527 0.6765898908698544 0.6765898908698544
vn 0.11770368643542342 0.9930486985302137 -0.0003529121140923586
vn 0.11774144286259976 0.7021883481775503 0.7021883481775503
vn 0.11770368643542342 -0.0003529121140923586 0.9930486985302137
vn 0.29060667429609527 0.6765898908698544 0.6765898908698544
vn 0.11774144286259976 0.7021883481775503 0.7021883481775503
vn 0.2906599439588097 0.6767139131944274 -0.676442958915936
vn 0.2906546936597249 -0.0003529826432319368 -0.9568279492452261
vn 0.11773536558894537 -0.0003530070980081616 -0.9930449431297791
vn 0.7007588768895978 0.504584654876445 -0.5043127229444527
vn 0.2906546936597249 -0.0003529826432319368 -0.9568279492452261
vn 0.2906599439588097 0.6767139131944274 -0.676442958915936
vn 0.2906546936597249 -0.0003529826432319368 -0.9568279492452261
vn 0.7007588768895978 0.504584654876445 -0.5043127229444527
vn 0.7007979004381955 -0.0003528851400673792 -0.7133597817465566
vn 0.7007979004381955 -0.0003528851400673792 -0.7133597817465566
vn 0.7007588768895978 0.504584654876445 -0.5043127229444527
vn 0.999999875391016 -0.00035299996637678496 -0.00035299996637678496
vn 0.2907132429260576 -0.6765669997817714 -0.6765669997817714
vn 0.11773536558894537 -0.0003530070980081616 -0.9930449431297791
vn 0.2906546936597249 -0.0003529826432319368 -0.9568279492452261
vn 0.11773536558894537 -0.0003530070980081616 -0.9930449431297791
vn 0.2907132429260576 -0.6765669997817714 -0.6765669997817714
vn 0.11778627746713288 -0.702184588566438 -0.702184588566438
vn 0.7008550237676441 -0.504381916636419 -0.504381916636419
vn 0.2906546936597249 -0.0003529826432319368 -0.9568279492452261
vn 0.7007979004381955 -0.0003528851400673792 -0.7133597817465566
vn 0.2906546936597249 -0.0003529826432319368 -0.9568279492452261
vn 0.7008550237676441 -0.504381916636419 -0.504381916636419
vn 0.2907132429260576 -0.6765669997817714 -0.6765669997817714
vn 0.7008550237676441 -0.504381916636419 -0.504381916636419
vn 0.7007979004381955 -0.0003528851400673792 -0.7133597817465566
vn 0.999999875391016 -0.00035299996637678496 -0.00035299996637678496
vn 0.11778627746713288 -0.702184588566438 -0.702184588566438
vn 0.2907132429260576 -0.6765669997817714 -0.6765669997817714
vn 0.11773536558894537 -0.9930449431297791 -0.0003530070980081616
vn 0.7007979004381955 -0.7133597817465566 -0.0003528851400673792
vn 0.7008550237676441 -0.504381916636419 -0.504381916636419
vn 0.999999875391016 -0.00035299996637678496 -0.00035299996637678496
vn 0.7008550237676441 -0.504381916636419 -0.504381916636419
vn 0.2906546936597249 -0.9568279492452261 -0.0003529826432319368
vn 0.2907132429260576 -0.6765669997817714 -0.6765669997817714
vn 0.2906546936597249 -0.9568279492452261 -0.0003529826432319368
vn 0.7008550237676441 -0.504381916636419 -0.504381916636419
vn 0.7007979004381955 -0.7133597817465566 -0.0003528851400673792
vn 0.2907132429260576 -0.6765669997817714 -0.6765669997817714
vn 0.2906546936597249 -0.9568279492452261 -0.0003529826432319368
vn 0.11773536558894537 -0.9930449431297791 -0.0003530070980081616
vn 0.7007588768895978 -0.5043127229444527 0.504584654876445
vn 0.7007979004381955 -0.7133597817465566 -0.0003528851400673792
vn 0.999999875391016 -0.00035299996637678496 -0.00035299996637678496
vn 0.7007588768895978 -0.5043127229444527 0.504584654876445
vn 0.2906546936597249 -0.9568279492452261 -0.0003529826432319368
vn 0.7007979004381955 -0.7133597817465566 -0.0003528851400673792
vn 0.7006624683171028 -0.00035281694354026127 0.7134928037562742
vn 0.7007588768895978 -0.5043127229444527 0.504584654876445
vn 0.999999875391016 -0.00035299996637678496 -0.00035299996637678496
vn 0.7006627695704599 0.5045154523589207 0.5045154523589207
vn 0.7006624683171028 -0.00035281694354026127 0.7134928037562742
vn 0.999999875391016 -0.00035299996637678496 -0.00035299996637678496
vn 0.2906599439588097 -0.676442958915936 0.6767139131944274
vn 0.11773536558894537 -0.9930449431297791 -0.0003530070980081616
vn 0.2906546936597249 -0.9568279492452261 -0.0003529826432319368
vn 0.2906546936597249 -0.9568279492452261 -0.0003529826432319368
vn 0.7007588768895978 -0.5043127229444527 0.504584654876445
vn 0.2906599439588097 -0.676442958915936 0.6767139131944274
vn 0.11773536558894537 -0.9930449431297791 -0.0003530070980081616
vn 0.2906599439588097 -0.676442958915936 0.6767139131944274
vn 0.11776385376389453 -0.70205090933681 0.702322002678283
vn 0.11776385376389453 -0.70205090933681 0.702322002678283
vn 0.2906599439588097 -0.676442958915936 0.6767139131944274
vn 0.11770368643542342 -0.0003529121140923586 0.9930486985302137
vn 0.7006627695704599 0.5045154523589207 0.5045154523589207
vn 0.29057935949515906 -0.00035289115442025 0.9568508302254936
vn 0.7006624683171028 -0.00035281694354026127 0.7134928037562742
vn 0.29057935949515906 -0.00035289115442025 0.9568508302254936
vn 0.7007588768895978 -0.5043127229444527 0.504584654876445
vn 0.7006624683171028 -0.00035281694354026127 0.7134928037562742
vn 0.7007588768895978 -0.5043127229444527 0.504584654876445
vn 0.29057935949515906 -0.00035289115442025 0.9568508302254936
vn 0.2906599439588097 -0.676442958915936 0.6767139131944274
vn 0.2906599439588097 -0.676442958915936 0.6767139131944274
vn 0.29057935949515906 -0.00035289115442025 0.9568508302254936
vn 0.11770368643542342 -0.0003529121140923586 0.9930486985302137
vn 0.29057935949515906 -0.00035289115442025 0.9568508302254936
vn 0.7006627695704599 0.5045154523589207 0.5045154523589207
vn 0.29060667429609527 0.6765898908698544 0.6765898908698544
vn 0.29060667429609527 0.6765898908698544 0.6765898908698544
vn 0.11770368643542342 -0.0003529121140923586 0.9930486985302137
vn 0.29057935949515906 -0.00035289115442025 0.9568508302254936
f 1/1/1 2/2/2 3/3/3
f 4/4/4 5/5/5 6/6/6
f 7/7/7 8/8/8 9/9/9
f 10/10/10 11/11/11 12/12/12
f 13/13/13 14/14/14 15/15/15
f 16/16/16 17/17/17 18/18/18
f 19/19/19 20/20/20 21/21/21
f 22/22/22 23/23/23 24/24/24
f 25/25/25 26/26/26 27/27/27
f 28/28/28 29/29/29 30/30/30
f 31/31/31 32/32/32 33/33/33
f 34/34/34 35/35/35 36/36/36
f 37/37/37 38/38/38 39/39/39
f 40/40/40 41/41/41 42/42/42
f 43/43/43 44/44/44 45/45/45
f 46/46/46 47/47/47 48/48/48
f 49/49/49 50/50/50 51/51/51
f 52/52/52 53/53/53 54/54/54
f 55/55/55 56/56/56 57/57/57
f 58/58/58 59/59/59 60/60/60
f 61/61/61 62/62/62 63/63/63
f 64/64/64 65/65/65 66/66/66
f 67/67/67 68/68/68 69/69/69
f 70/70/70 71/71/71 72/72/72
f 73/73/73 74/74/74 75/75/75
f 76/76/76 77/77/77 78/78/78
f 79/79/79 80/80/80 81/81/81
f 82/82/82 83/83/83 84/84/84
f 85/85/85 86/86/86 87/87/87
f 88/88/88 89/89/89 90/90/90
f 91/91/91 92/92/92 93/93/93
f 94/94/94 95/95/95 96/96/96
f 97/97/97 98/98/98 99/99/99
f 100/100/100 101/101/101 102/102/102
f 103/103/103 104/104/104 105/105/105
f 106/106/106 107/107/107 108/108/108
f 109/109/109 110/110/110 111/111/111
f 112/112/112 113/113/113 114/114/114
f 115/115/115 116/116/116 117/117/117
f 118/118/118 119/119/119 120/120/120
f 121/121/121 122/122/122 123/123/123
f 124/124/124 125/125/125 126/126/126
f 127/127/127 128/128/128 129/129/129
f 130/130/130 131/131/131 132/132/132
f 133/133/133 134/134/134 135/135/135
f 136/136/136 137/137/137 138/138/138
f 139/139/139 140/140/140 141/141/141
f 142/142/142 143/143/143 144/144/144
f 145/145/145 146/146/146 147/147/147
f 148/148/148 149/149/149 150/150/150
f 151/151/151 152/152/152 153/153/153
f 154/154/154 155/155/155 156/156/156
f 157/157/157 158/158/158 159/159/159
f 160/160/160 161/161/161 162/162/162
f 163/163/163 164/164/164 165/165/165
f 166/166/166 167/167/167 168/168/168
f 169/169/169 170/170/170 171/171/171
f 172/172/172 173/173/173 174/174/174
f 175/175/175 176/176/176 177/177/177
f 178/178/178 179/179/179 180/180/180
f 181/181/181 182/182/182 183/183/183
f 184/184/184 185/185/185 186/186/186
f 187/187/187 188/188/188 189/189/189
f 190/190/190 191/191/191 192/192/192
