o 
v -0.8487949919834608 0.4328179442356158 0.07681199908256531
v -0.8487949919834608 0.3560059451530505 0.10862799733877182
v -0.8578199696674818 0.3560059451530505 0.13539299368858337
v -0.8487949919834608 0.2791949444482852 0.07681199908256531
v -0.8578199696674818 0.3560059451530505 0.13539299368858337
v -0.8487949919834608 0.3560059451530505 0.10862799733877182
v -0.8578199696674818 0.3560059451530505 0.13539299368858337
v -0.8578199696674818 0.4517429479430247 0.09573700278997421
v -0.8487949919834608 0.4328179442356158 0.07681199908256531
v -0.8578199696674818 0.3560059451530505 0.13539299368858337
v -0.8487949919834608 0.2791949444482852 0.07681199908256531
v -0.8578199696674818 0.2602689423630763 0.09573700278997421
v -0.8578199696674818 0.4913989388416339 0
v -0.8487949919834608 0.4328179442356158 0.07681199908256531
v -0.8578199696674818 0.4517429479430247 0.09573700278997421
v -0.8487949919834608 0.2473779478142787 0
v -0.8578199696674818 0.2602689423630763 0.09573700278997421
v -0.8487949919834608 0.2791949444482852 0.07681199908256531
v -0.8487949919834608 0.4328179442356158 0.07681199908256531
v -0.8578199696674818 0.4913989388416339 0
v -0.8487949919834608 0.4646339424918223 0
v -0.8578199696674818 0.2602689423630763 0.09573700278997421
v -0.8487949919834608 0.2473779478142787 0
v -0.8578199696674818 0.22061295146446713 0
v -0.8578199696674818 0.4913989388416339 0
v -0.8487949919834608 0.4328179442356158 -0.07681100070476532
v -0.8487949919834608 0.4646339424918223 0
v -0.8578199696674818 0.2602689423630763 -0.09573700278997421
v -0.8578199696674818 0.22061295146446713 0
v -0.8487949919834608 0.2473779478142787 0
v -0.8578199696674818 0.4913989388416339 0
v -0.8578199696674818 0.4517429479430247 -0.09573700278997421
v -0.8487949919834608 0.4328179442356158 -0.07681100070476532
v -0.8578199696674818 0.2602689423630763 -0.09573700278997421
v -0.8487949919834608 0.2473779478142787 0
v -0.8487949919834608 0.2791949444482852 -0.07681100070476532
v -0.8487949919834608 0.3560059451530505 -0.10862799733877182
v -0.8487949919834608 0.4328179442356158 -0.07681100070476532
v -0.8578199696674818 0.4517429479430247 -0.09573700278997421
v -0.8487949919834608 0.3560059451530505 -0.10862799733877182
v -0.8578199696674818 0.2602689423630763 -0.09573700278997421
v -0.8487949919834608 0.2791949444482852 -0.07681100070476532
v -0.8578199696674818 0.4517429479430247 -0.09573700278997421
v -0.8578199696674818 0.3560059451530505 -0.13539299368858337
v -0.8487949919834608 0.3560059451530505 -0.10862799733877182
v -0.8578199696674818 0.2602689423630763 -0.09573700278997421
v -0.8487949919834608 0.3560059451530505 -0.10862799733877182
v -0.8578199696674818 0.3560059451530505 -0.13539299368858337
v 0.23661303995699945 0.4434889414380122 0.08926299959421158
v 0.20653599976153436 0.3566499451673407 0.10300300270318985
v 0.22261798857302728 0.42803194457989224 0.07283399999141693
v 0.20653599976153436 0.3566499451673407 0.10300300270318985
v 0.23661303995699945 0.4434889414380122 0.08926299959421158
v 0.21887404202075067 0.3560059451530505 0.12623700499534607
v 0.24396104096026483 0.4797249444792796 0
v 0.23661303995699945 0.4434889414380122 0.08926299959421158
v 0.22261798857302728 0.42803194457989224 0.07283399999141693
v 0.19045401095004144 0.28526894832354077 0.07283399999141693
v 0.20653599976153436 0.3566499451673407 0.10300300270318985
v 0.21887404202075067 0.3560059451530505 0.12623700499534607
v 0.24396104096026483 0.4797249444792796 0
v 0.22261798857302728 0.42803194457989224 0.07283399999141693
v 0.2292789864406115 0.4575989478300143 0
v 0.21887404202075067 0.3560059451530505 0.12623700499534607
v 0.2011359977588183 0.2685229488680888 0.08926299959421158
v 0.19045401095004144 0.28526894832354077 0.07283399999141693
v 0.22261798857302728 0.42803194457989224 -0.07283399999141693
v 0.24396104096026483 0.4797249444792796 0
v 0.2292789864406115 0.4575989478300143 0
v 0.19378799675555292 0.2322869458268214 0
v 0.19045401095004144 0.28526894832354077 0.07283399999141693
v 0.2011359977588183 0.2685229488680888 0.08926299959421158
v 0.24396104096026483 0.4797249444792796 0
v 0.22261798857302728 0.42803194457989224 -0.07283399999141693
v 0.23661303995699945 0.4434889414380122 -0.08926299959421158
v 0.19045401095004144 0.28526894832354077 0.07283399999141693
v 0.19378799675555292 0.2322869458268214 0
v 0.18379199980349603 0.2557019450734187 0
v 0.20653599976153436 0.3566499451673407 -0.10300300270318985
v 0.23661303995699945 0.4434889414380122 -0.08926299959421158
v 0.22261798857302728 0.42803194457989224 -0.07283399999141693
v 0.19378799675555292 0.2322869458268214 0
v 0.19045401095004144 0.28526894832354077 -0.07283399999141693
v 0.18379199980349603 0.2557019450734187 0
v 0.23661303995699945 0.4434889414380122 -0.08926299959421158
v 0.20653599976153436 0.3566499451673407 -0.10300300270318985
v 0.21887404202075067 0.3560059451530505 -0.12623700499534607
v 0.19045401095004144 0.28526894832354077 -0.07283399999141693
v 0.21887404202075067 0.3560059451530505 -0.12623700499534607
v 0.20653599976153436 0.3566499451673407 -0.10300300270318985
v 0.19378799675555292 0.2322869458268214 0
v 0.2011359977588183 0.2685229488680888 -0.08926299959421158
v 0.19045401095004144 0.28526894832354077 -0.07283399999141693
v 0.21887404202075067 0.3560059451530505 -0.12623700499534607
v 0.19045401095004144 0.28526894832354077 -0.07283399999141693
v 0.2011359977588183 0.2685229488680888 -0.08926299959421158
v -0.8578199696674818 0.2602689423630763 -0.09573700278997421
v -0.8287950110569471 0.2017049425313998 0
v -0.8578199696674818 0.22061295146446713 0
v -0.8578199696674818 0.2602689423630763 0.09573700278997421
v -0.8578199696674818 0.22061295146446713 0
v -0.8287950110569471 0.2017049425313998 0
v -0.8287950110569471 0.2017049425313998 0
v -0.8578199696674818 0.2602689423630763 -0.09573700278997421
v -0.8287950110569471 0.24689894253712186 -0.10910700261592865
v -0.8287950110569471 0.2017049425313998 0
v -0.8287950110569471 0.24689894253712186 0.10910700261592865
v -0.8578199696674818 0.2602689423630763 0.09573700278997421
v -0.8287950110569471 0.3560059451530505 -0.1543010026216507
v -0.8287950110569471 0.24689894253712186 -0.10910700261592865
v -0.8578199696674818 0.2602689423630763 -0.09573700278997421
v -0.8287950110569471 0.3560059451530505 0.1543010026216507
v -0.8578199696674818 0.2602689423630763 0.09573700278997421
v -0.8287950110569471 0.24689894253712186 0.10910700261592865
v -0.8578199696674818 0.2602689423630763 -0.09573700278997421
v -0.8578199696674818 0.3560059451530505 -0.13539299368858337
v -0.8287950110569471 0.3560059451530505 -0.1543010026216507
v -0.8578199696674818 0.2602689423630763 0.09573700278997421
v -0.8287950110569471 0.3560059451530505 0.1543010026216507
v -0.8578199696674818 0.3560059451530505 0.13539299368858337
v -0.8578199696674818 0.4517429479430247 -0.09573700278997421
v -0.8287950110569471 0.3560059451530505 -0.1543010026216507
v -0.8578199696674818 0.3560059451530505 -0.13539299368858337
v -0.8578199696674818 0.4517429479430247 0.09573700278997421
v -0.8578199696674818 0.3560059451530505 0.13539299368858337
v -0.8287950110569471 0.3560059451530505 0.1543010026216507
v -0.8287950110569471 0.3560059451530505 -0.1543010026216507
v -0.8578199696674818 0.4517429479430247 -0.09573700278997421
v -0.8287950110569471 0.46511294776897916 -0.10910700261592865
v -0.8287950110569471 0.3560059451530505 0.1543010026216507
v -0.8287950110569471 0.46511294776897916 0.10910700261592865
v -0.8578199696674818 0.4517429479430247 0.09573700278997421
v -0.8578199696674818 0.4517429479430247 -0.09573700278997421
v -0.8287950110569471 0.5103069477747012 0
v -0.8287950110569471 0.46511294776897916 -0.10910700261592865
v -0.8287950110569471 0.5103069477747012 0
v -0.8578199696674818 0.4517429479430247 0.09573700278997421
v -0.8287950110569471 0.46511294776897916 0.10910700261592865
v -0.8287950110569471 0.5103069477747012 0
v -0.8578199696674818 0.4517429479430247 -0.09573700278997421
v -0.8578199696674818 0.4913989388416339 0
v -0.8578199696674818 0.4517429479430247 0.09573700278997421
v -0.8287950110569471 0.5103069477747012 0
v -0.8578199696674818 0.4913989388416339 0
v 0.2011359977588183 0.2685229488680888 0.08926299959421158
v 0.1865360188350207 0.3560059451530505 0.14305999875068665
v 0.16643301128001275 0.2568649434516955 0.10115800052881241
v 0.15810701726527276 0.2157999509046603 0
v 0.2011359977588183 0.2685229488680888 0.08926299959421158
v 0.16643301128001275 0.2568649434516955 0.10115800052881241
v 0.1865360188350207 0.3560059451530505 0.14305999875068665
v 0.2011359977588183 0.2685229488680888 0.08926299959421158
v 0.21887404202075067 0.3560059451530505 0.12623700499534607
v 0.2011359977588183 0.2685229488680888 0.08926299959421158
v 0.15810701726527276 0.2157999509046603 0
v 0.19378799675555292 0.2322869458268214 0
v 0.21887404202075067 0.3560059451530505 0.12623700499534607
v 0.20663899658770624 0.4551469468544055 0.10115800052881241
v 0.1865360188350207 0.3560059451530505 0.14305999875068665
v 0.15810701726527276 0.2157999509046603 0
v 0.2011359977588183 0.2685229488680888 -0.08926299959421158
v 0.19378799675555292 0.2322869458268214 0
v 0.20663899658770624 0.4551469468544055 0.10115800052881241
v 0.21887404202075067 0.3560059451530505 0.12623700499534607
v 0.23661303995699945 0.4434889414380122 0.08926299959421158
v 0.2011359977588183 0.2685229488680888 -0.08926299959421158
v 0.15810701726527276 0.2157999509046603 0
v 0.16643301128001275 0.2568649434516955 -0.10115800052881241
v 0.21496499060244623 0.4962119394014407 0
v 0.20663899658770624 0.4551469468544055 0.10115800052881241
v 0.23661303995699945 0.4434889414380122 0.08926299959421158
v 0.1865360188350207 0.3560059451530505 -0.14305999875068665
v 0.2011359977588183 0.2685229488680888 -0.08926299959421158
v 0.16643301128001275 0.2568649434516955 -0.10115800052881241
v 0.23661303995699945 0.4434889414380122 0.08926299959421158
v 0.24396104096026483 0.4797249444792796 0
v 0.21496499060244623 0.4962119394014407 0
v 0.2011359977588183 0.2685229488680888 -0.08926299959421158
v 0.1865360188350207 0.3560059451530505 -0.14305999875068665
v 0.21887404202075067 0.3560059451530505 -0.12623700499534607
v 0.23661303995699945 0.4434889414380122 -0.08926299959421158
v 0.21496499060244623 0.4962119394014407 0
v 0.24396104096026483 0.4797249444792796 0
v 0.20663899658770624 0.4551469468544055 -0.10115800052881241
v 0.21887404202075067 0.3560059451530505 -0.12623700499534607
v 0.1865360188350207 0.3560059451530505 -0.14305999875068665
v 0.21496499060244623 0.4962119394014407 0
v 0.23661303995699945 0.4434889414380122 -0.08926299959421158
v 0.20663899658770624 0.4551469468544055 -0.10115800052881241
v 0.21887404202075067 0.3560059451530505 -0.12623700499534607
v 0.20663899658770624 0.4551469468544055 -0.10115800052881241
v 0.23661303995699945 0.4434889414380122 -0.08926299959421158
v -0.24451998890786109 0.3571389451655377 -0.15034300088882446
v -0.3887939852610105 0.3571389451655377 -0.15034300088882446
v -0.3166569870844358 0.4292759456704188 -0.15034300088882446
v -0.3166569870844358 0.4292759456704188 -0.15034300088882446
v -0.3887939852610105 0.3571389451655377 -0.15034300088882446
v -0.36766598643212256 0.4081479468415309 -0.15034300088882446
v -0.24451998890786109 0.3571389451655377 -0.15034300088882446
v -0.3166569870844358 0.4292759456704188 -0.15034300088882446
v -0.265647987736749 0.4081479468415309 -0.15034300088882446
v -0.24451998890786109 0.3571389451655377 -0.15034300088882446
v -0.36766598643212256 0.30612994442086705 -0.15034300088882446
v -0.3887939852610105 0.3571389451655377 -0.15034300088882446
v -0.36766598643212256 0.30612994442086705 -0.15034300088882446
v -0.24451998890786109 0.3571389451655377 -0.15034300088882446
v -0.265647987736749 0.30612994442086705 -0.15034300088882446
v -0.36766598643212256 0.30612994442086705 -0.15034300088882446
v -0.265647987736749 0.30612994442086705 -0.15034300088882446
v -0.3166569870844358 0.2850009434888888 -0.15034300088882446
v -0.265647987736749 0.30612994442086705 0.15034300088882446
v -0.36766598643212256 0.30612994442086705 0.15034300088882446
v -0.3166569870844358 0.2850009434888888 0.15034300088882446
v -0.24451998890786109 0.3571389451655377 0.15034300088882446
v -0.36766598643212256 0.30612994442086705 0.15034300088882446
v -0.265647987736749 0.30612994442086705 0.15034300088882446
v -0.36766598643212256 0.30612994442086705 0.15034300088882446
v -0.24451998890786109 0.3571389451655377 0.15034300088882446
v -0.3887939852610105 0.3571389451655377 0.15034300088882446
v -0.3887939852610105 0.3571389451655377 0.15034300088882446
v -0.24451998890786109 0.3571389451655377 0.15034300088882446
v -0.3166569870844358 0.4292759456704188 0.15034300088882446
v -0.3166569870844358 0.4292759456704188 0.15034300088882446
v -0.24451998890786109 0.3571389451655377 0.15034300088882446
v -0.265647987736749 0.4081479468415309 0.15034300088882446
v -0.3887939852610105 0.3571389451655377 0.15034300088882446
v -0.3166569870844358 0.4292759456704188 0.15034300088882446
v -0.36766598643212256 0.4081479468415309 0.15034300088882446
v -0.36766598643212256 0.4938369476268817 0.05100899934768677
v -0.3166569870844358 0.4938369476268817 -0.07213699817657471
v -0.36766598643212256 0.4938369476268817 -0.05100899934768677
v -0.36766598643212256 0.4938369476268817 0.05100899934768677
v -0.36766598643212256 0.4938369476268817 -0.05100899934768677
v -0.3887949910893911 0.4938369476268817 0
v -0.3166569870844358 0.4938369476268817 -0.07213699817657471
v -0.36766598643212256 0.4938369476268817 0.05100899934768677
v -0.3166569870844358 0.4938369476268817 0.07213699817657471
v -0.24451998890786109 0.4938369476268817 0
v -0.3166569870844358 0.4938369476268817 -0.07213699817657471
v -0.3166569870844358 0.4938369476268817 0.07213699817657471
v -0.3166569870844358 0.4938369476268817 -0.07213699817657471
v -0.24451998890786109 0.4938369476268817 0
v -0.265647987736749 0.4938369476268817 -0.05100899934768677
v -0.24451998890786109 0.4938369476268817 0
v -0.3166569870844358 0.4938369476268817 0.07213699817657471
v -0.265647987736749 0.4938369476268817 0.05100899934768677
v -0.36766598643212256 0.4081479468415309 -0.15034300088882446
v -0.3166569870844358 0.4292759456704188 0.15034300088882446
v -0.3166569870844358 0.4292759456704188 -0.15034300088882446
v -0.265647987736749 0.4081479468415309 0.15034300088882446
v -0.3166569870844358 0.4292759456704188 -0.15034300088882446
v -0.3166569870844358 0.4292759456704188 0.15034300088882446
v -0.3166569870844358 0.4292759456704188 0.15034300088882446
v -0.36766598643212256 0.4081479468415309 -0.15034300088882446
v -0.36766598643212256 0.4081479468415309 0.15034300088882446
v -0.3166569870844358 0.4292759456704188 -0.15034300088882446
v -0.265647987736749 0.4081479468415309 0.15034300088882446
v -0.265647987736749 0.4081479468415309 -0.15034300088882446
v -0.3887939852610105 0.3571389451655377 -0.15034300088882446
v -0.36766598643212256 0.4081479468415309 0.15034300088882446
v -0.36766598643212256 0.4081479468415309 -0.15034300088882446
v -0.24451998890786109 0.3571389451655377 0.15034300088882446
v -0.265647987736749 0.4081479468415309 -0.15034300088882446
v -0.265647987736749 0.4081479468415309 0.15034300088882446
v -0.36766598643212256 0.4081479468415309 0.15034300088882446
v -0.3887939852610105 0.3571389451655377 -0.15034300088882446
v -0.3887939852610105 0.3571389451655377 0.15034300088882446
v -0.265647987736749 0.4081479468415309 -0.15034300088882446
v -0.24451998890786109 0.3571389451655377 0.15034300088882446
v -0.24451998890786109 0.3571389451655377 -0.15034300088882446
v -0.36766598643212256 0.30612994442086705 -0.15034300088882446
v -0.3887939852610105 0.3571389451655377 0.15034300088882446
v -0.3887939852610105 0.3571389451655377 -0.15034300088882446
v -0.265647987736749 0.30612994442086705 0.15034300088882446
v -0.24451998890786109 0.3571389451655377 -0.15034300088882446
v -0.24451998890786109 0.3571389451655377 0.15034300088882446
v -0.3887939852610105 0.3571389451655377 0.15034300088882446
v -0.36766598643212256 0.30612994442086705 -0.15034300088882446
v -0.36766598643212256 0.30612994442086705 0.15034300088882446
v -0.24451998890786109 0.3571389451655377 -0.15034300088882446
v -0.265647987736749 0.30612994442086705 0.15034300088882446
v -0.265647987736749 0.30612994442086705 -0.15034300088882446
v -0.3166569870844358 0.2850009434888888 -0.15034300088882446
v -0.36766598643212256 0.30612994442086705 0.15034300088882446
v -0.36766598643212256 0.30612994442086705 -0.15034300088882446
v -0.3166569870844358 0.2850009434888888 0.15034300088882446
v -0.265647987736749 0.30612994442086705 -0.15034300088882446
v -0.265647987736749 0.30612994442086705 0.15034300088882446
v -0.36766598643212256 0.30612994442086705 0.15034300088882446
v -0.3166569870844358 0.2850009434888888 -0.15034300088882446
v -0.3166569870844358 0.2850009434888888 0.15034300088882446
v -0.265647987736749 0.30612994442086705 -0.15034300088882446
v -0.3166569870844358 0.2850009434888888 0.15034300088882446
v -0.3166569870844358 0.2850009434888888 -0.15034300088882446
v 0.16643301128001275 0.2568649434516955 -0.10115800052881241
v 0.09853601931185785 0.3560059451530505 -0.14305999875068665
v 0.1865360188350207 0.3560059451530505 -0.14305999875068665
v 0.11863902686686578 0.4551469468544055 -0.10115800052881241
v 0.1865360188350207 0.3560059451530505 -0.14305999875068665
v 0.09853601931185785 0.3560059451530505 -0.14305999875068665
v 0.09853601931185785 0.3560059451530505 -0.14305999875068665
v 0.16643301128001275 0.2568649434516955 -0.10115800052881241
v 0.07843301175684991 0.2568649434516955 -0.10115800052881241
v 0.1865360188350207 0.3560059451530505 -0.14305999875068665
v 0.11863902686686578 0.4551469468544055 -0.10115800052881241
v 0.20663899658770624 0.4551469468544055 -0.10115800052881241
v 0.15810701726527276 0.2157999509046603 0
v 0.07843301175684991 0.2568649434516955 -0.10115800052881241
v 0.16643301128001275 0.2568649434516955 -0.10115800052881241
v 0.12696502088160577 0.4962119394014407 0
v 0.20663899658770624 0.4551469468544055 -0.10115800052881241
v 0.11863902686686578 0.4551469468544055 -0.10115800052881241
v 0.07843301175684991 0.2568649434516955 -0.10115800052881241
v 0.15810701726527276 0.2157999509046603 0
v 0.07010701774210992 0.2157999509046603 0
v 0.20663899658770624 0.4551469468544055 -0.10115800052881241
v 0.12696502088160577 0.4962119394014407 0
v 0.21496499060244623 0.4962119394014407 0
v 0.15810701726527276 0.2157999509046603 0
v 0.07843301175684991 0.2568649434516955 0.10115800052881241
v 0.07010701774210992 0.2157999509046603 0
v 0.21496499060244623 0.4962119394014407 0
v 0.12696502088160577 0.4962119394014407 0
v 0.20663899658770624 0.4551469468544055 0.10115800052881241
v 0.07843301175684991 0.2568649434516955 0.10115800052881241
v 0.15810701726527276 0.2157999509046603 0
v 0.16643301128001275 0.2568649434516955 0.10115800052881241
v 0.12696502088160577 0.4962119394014407 0
v 0.11863902686686578 0.4551469468544055 0.10115800052881241
v 0.20663899658770624 0.4551469468544055 0.10115800052881241
v 0.16643301128001275 0.2568649434516955 0.10115800052881241
v 0.09853601931185785 0.3560059451530505 0.14305999875068665
v 0.07843301175684991 0.2568649434516955 0.10115800052881241
v 0.11863902686686578 0.4551469468544055 0.10115800052881241
v 0.1865360188350207 0.3560059451530505 0.14305999875068665
v 0.20663899658770624 0.4551469468544055 0.10115800052881241
v 0.09853601931185785 0.3560059451530505 0.14305999875068665
v 0.16643301128001275 0.2568649434516955 0.10115800052881241
v 0.1865360188350207 0.3560059451530505 0.14305999875068665
v 0.1865360188350207 0.3560059451530505 0.14305999875068665
v 0.11863902686686578 0.4551469468544055 0.10115800052881241
v 0.09853601931185785 0.3560059451530505 0.14305999875068665
v -0.8287950110569471 0.46511294776897916 -0.10910700261592865
v -0.7285940003529066 0.5103069477747012 0
v -0.7285940003529066 0.46511294776897916 -0.10910700261592865
v -0.7285940003529066 0.5103069477747012 0
v -0.8287950110569471 0.46511294776897916 -0.10910700261592865
v -0.8287950110569471 0.5103069477747012 0
v -0.8287950110569471 0.46511294776897916 -0.10910700261592865
v -0.7285940003529066 0.46511294776897916 -0.10910700261592865
v -0.8287950110569471 0.3560059451530505 -0.1543010026216507
v -0.8287950110569471 0.5103069477747012 0
v -0.7285940003529066 0.46511294776897916 0.10910700261592865
v -0.7285940003529066 0.5103069477747012 0
v -0.7285940003529066 0.46511294776897916 -0.10910700261592865
v -0.7285940003529066 0.3560059451530505 -0.1543010026216507
v -0.8287950110569471 0.3560059451530505 -0.1543010026216507
v -0.7285940003529066 0.46511294776897916 0.10910700261592865
v -0.8287950110569471 0.5103069477747012 0
v -0.8287950110569471 0.46511294776897916 0.10910700261592865
v -0.8287950110569471 0.3560059451530505 -0.1543010026216507
v -0.7285940003529066 0.3560059451530505 -0.1543010026216507
v -0.8287950110569471 0.24689894253712186 -0.10910700261592865
v -0.7285940003529066 0.3560059451530505 0.1543010026216507
v -0.7285940003529066 0.46511294776897916 0.10910700261592865
v -0.8287950110569471 0.46511294776897916 0.10910700261592865
v -0.7285940003529066 0.3560059451530505 -0.1543010026216507
v -0.7285940003529066 0.24689894253712186 -0.10910700261592865
v -0.8287950110569471 0.24689894253712186 -0.10910700261592865
v -0.8287950110569471 0.3560059451530505 0.1543010026216507
v -0.7285940003529066 0.3560059451530505 0.1543010026216507
v -0.8287950110569471 0.46511294776897916 0.10910700261592865
v -0.8287950110569471 0.24689894253712186 -0.10910700261592865
v -0.7285940003529066 0.24689894253712186 -0.10910700261592865
v -0.8287950110569471 0.2017049425313998 0
v -0.7285940003529066 0.24689894253712186 0.10910700261592865
v -0.7285940003529066 0.3560059451530505 0.1543010026216507
v -0.8287950110569471 0.3560059451530505 0.1543010026216507
v -0.7285940003529066 0.24689894253712186 -0.10910700261592865
v -0.7285940003529066 0.2017049425313998 0
v -0.8287950110569471 0.2017049425313998 0
v -0.8287950110569471 0.24689894253712186 0.10910700261592865
v -0.7285940003529066 0.24689894253712186 0.10910700261592865
v -0.8287950110569471 0.3560059451530505 0.1543010026216507
v -0.7285940003529066 0.2017049425313998 0
v -0.7285940003529066 0.24689894253712186 0.10910700261592865
v -0.8287950110569471 0.24689894253712186 0.10910700261592865
v -0.8287950110569471 0.2017049425313998 0
v -0.7285940003529066 0.2017049425313998 0
v -0.8287950110569471 0.24689894253712186 0.10910700261592865
v 0.2292789864406115 0.4575989478300143 0
v 0.05874601482005182 0.4691939436862994 0
v 0.22261798857302728 0.42803194457989224 -0.07283399999141693
v 0.22261798857302728 0.42803194457989224 0.07283399999141693
v 0.05874601482005182 0.4691939436862994 0
v 0.2292789864406115 0.4575989478300143 0
v 0.05874601482005182 0.43962594205837735 -0.07283399999141693
v 0.22261798857302728 0.42803194457989224 -0.07283399999141693
v 0.05874601482005182 0.4691939436862994 0
v 0.05874601482005182 0.4691939436862994 0
v 0.22261798857302728 0.42803194457989224 0.07283399999141693
v 0.05874601482005182 0.43962594205837735 0.07283399999141693
v 0.22261798857302728 0.42803194457989224 -0.07283399999141693
v 0.05874601482005182 0.43962594205837735 -0.07283399999141693
v 0.20653599976153436 0.3566499451673407 -0.10300300270318985
v 0.20653599976153436 0.3566499451673407 0.10300300270318985
v 0.05874601482005182 0.43962594205837735 0.07283399999141693
v 0.22261798857302728 0.42803194457989224 0.07283399999141693
v 0.05874601482005182 0.36824494498174676 -0.10300300270318985
v 0.20653599976153436 0.3566499451673407 -0.10300300270318985
v 0.05874601482005182 0.43962594205837735 -0.07283399999141693
v 0.05874601482005182 0.43962594205837735 0.07283399999141693
v 0.20653599976153436 0.3566499451673407 0.10300300270318985
v 0.05874601482005182 0.36824494498174676 0.10300300270318985
v 0.19045401095004144 0.28526894832354077 -0.07283399999141693
v 0.20653599976153436 0.3566499451673407 -0.10300300270318985
v 0.05874601482005182 0.36824494498174676 -0.10300300270318985
v 0.19045401095004144 0.28526894832354077 0.07283399999141693
v 0.05874601482005182 0.36824494498174676 0.10300300270318985
v 0.20653599976153436 0.3566499451673407 0.10300300270318985
v 0.05874601482005182 0.29686394417982587 -0.07283399999141693
v 0.19045401095004144 0.28526894832354077 -0.07283399999141693
v 0.05874601482005182 0.36824494498174676 -0.10300300270318985
v 0.05874601482005182 0.36824494498174676 0.10300300270318985
v 0.19045401095004144 0.28526894832354077 0.07283399999141693
v 0.05874601482005182 0.29686394417982587 0.07283399999141693
v 0.05874601482005182 0.29686394417982587 -0.07283399999141693
v 0.18379199980349603 0.2557019450734187 0
v 0.19045401095004144 0.28526894832354077 -0.07283399999141693
v 0.18379199980349603 0.2557019450734187 0
v 0.05874601482005182 0.29686394417982587 0.07283399999141693
v 0.19045401095004144 0.28526894832354077 0.07283399999141693
v 0.18379199980349603 0.2557019450734187 0
v 0.05874601482005182 0.29686394417982587 -0.07283399999141693
v 0.05874601482005182 0.2672959425519038 0
v 0.05874601482005182 0.29686394417982587 0.07283399999141693
v 0.18379199980349603 0.2557019450734187 0
v 0.05874601482005182 0.2672959425519038 0
v -0.36766598643212256 0.3921269447575141 -0.05100899934768677
v -0.36766598643212256 0.4938369476268817 -0.05100899934768677
v -0.3166569870844358 0.4938369476268817 -0.07213699817657471
v -0.36766598643212256 0.4938369476268817 -0.05100899934768677
v -0.36766598643212256 0.3921269447575141 -0.05100899934768677
v -0.3887949910893911 0.3921269447575141 0
v -0.3166569870844358 0.4938369476268817 -0.07213699817657471
v -0.3166569870844358 0.3921269447575141 -0.07213699817657471
v -0.36766598643212256 0.3921269447575141 -0.05100899934768677
v -0.36766598643212256 0.4938369476268817 -0.05100899934768677
v -0.3887949910893911 0.3921269447575141 0
v -0.3887949910893911 0.4938369476268817 0
v -0.3166569870844358 0.3921269447575141 -0.07213699817657471
v -0.3166569870844358 0.4938369476268817 -0.07213699817657471
v -0.265647987736749 0.4938369476268817 -0.05100899934768677
v -0.3887949910893911 0.4938369476268817 0
v -0.3887949910893911 0.3921269447575141 0
v -0.36766598643212256 0.3921269447575141 0.05100899934768677
v -0.265647987736749 0.4938369476268817 -0.05100899934768677
v -0.265647987736749 0.3921269447575141 -0.05100899934768677
v -0.3166569870844358 0.3921269447575141 -0.07213699817657471
v -0.3887949910893911 0.4938369476268817 0
v -0.36766598643212256 0.3921269447575141 0.05100899934768677
v -0.36766598643212256 0.4938369476268817 0.05100899934768677
v -0.265647987736749 0.3921269447575141 -0.05100899934768677
v -0.265647987736749 0.4938369476268817 -0.05100899934768677
v -0.24451998890786109 0.4938369476268817 0
v -0.3166569870844358 0.3921269447575141 0.07213699817657471
v -0.36766598643212256 0.4938369476268817 0.05100899934768677
v -0.36766598643212256 0.3921269447575141 0.05100899934768677
v -0.265647987736749 0.3921269447575141 -0.05100899934768677
v -0.24451998890786109 0.4938369476268817 0
v -0.24451998890786109 0.3921269447575141 0
v -0.36766598643212256 0.4938369476268817 0.05100899934768677
v -0.3166569870844358 0.3921269447575141 0.07213699817657471
v -0.3166569870844358 0.4938369476268817 0.07213699817657471
v -0.24451998890786109 0.3921269447575141 0
v -0.24451998890786109 0.4938369476268817 0
v -0.265647987736749 0.4938369476268817 0.05100899934768677
v -0.265647987736749 0.3921269447575141 0.05100899934768677
v -0.3166569870844358 0.4938369476268817 0.07213699817657471
v -0.3166569870844358 0.3921269447575141 0.07213699817657471
v -0.24451998890786109 0.3921269447575141 0
v -0.265647987736749 0.4938369476268817 0.05100899934768677
v -0.265647987736749 0.3921269447575141 0.05100899934768677
v -0.3166569870844358 0.4938369476268817 0.07213699817657471
v -0.265647987736749 0.3921269447575141 0.05100899934768677
v -0.265647987736749 0.4938369476268817 0.05100899934768677
v -0.7392969977989667 0.2473779478142787 0
v -0.8487949919834608 0.2473779478142787 0
v -0.7392969977989667 0.2791949444482852 0.07681199908256531
v -0.8487949919834608 0.2473779478142787 0
v -0.8487949919834608 0.2791949444482852 0.07681199908256531
v -0.7392969977989667 0.2791949444482852 0.07681199908256531
v -0.8487949919834608 0.2791949444482852 -0.07681100070476532
v -0.8487949919834608 0.2473779478142787 0
v -0.7392969977989667 0.2473779478142787 0
v -0.8487949919834608 0.2791949444482852 0.07681199908256531
v -0.7392969977989667 0.3560059451530505 0.10862799733877182
v -0.7392969977989667 0.2791949444482852 0.07681199908256531
v -0.7392969977989667 0.2791949444482852 -0.07681100070476532
v -0.8487949919834608 0.2791949444482852 -0.07681100070476532
v -0.7392969977989667 0.2473779478142787 0
v -0.7392969977989667 0.3560059451530505 0.10862799733877182
v -0.8487949919834608 0.2791949444482852 0.07681199908256531
v -0.8487949919834608 0.3560059451530505 0.10862799733877182
v -0.7392969977989667 0.2791949444482852 -0.07681100070476532
v -0.8487949919834608 0.3560059451530505 -0.10862799733877182
v -0.8487949919834608 0.2791949444482852 -0.07681100070476532
v -0.8487949919834608 0.3560059451530505 0.10862799733877182
v -0.7392969977989667 0.4328179442356158 0.07681199908256531
v -0.7392969977989667 0.3560059451530505 0.10862799733877182
v -0.8487949919834608 0.3560059451530505 -0.10862799733877182
v -0.7392969977989667 0.2791949444482852 -0.07681100070476532
v -0.7392969977989667 0.3560059451530505 -0.10862799733877182
v -0.7392969977989667 0.4328179442356158 0.07681199908256531
v -0.8487949919834608 0.3560059451530505 0.10862799733877182
v -0.8487949919834608 0.4328179442356158 0.07681199908256531
v -0.7392969977989667 0.3560059451530505 -0.10862799733877182
v -0.8487949919834608 0.4328179442356158 -0.07681100070476532
v -0.8487949919834608 0.3560059451530505 -0.10862799733877182
v -0.8487949919834608 0.4328179442356158 0.07681199908256531
v -0.7392969977989667 0.4646339424918223 0
v -0.7392969977989667 0.4328179442356158 0.07681199908256531
v -0.8487949919834608 0.4328179442356158 -0.07681100070476532
v -0.7392969977989667 0.3560059451530505 -0.10862799733877182
v -0.7392969977989667 0.4328179442356158 -0.07681100070476532
v -0.7392969977989667 0.4646339424918223 0
v -0.8487949919834608 0.4328179442356158 0.07681199908256531
v -0.8487949919834608 0.4646339424918223 0
v -0.7392969977989667 0.4328179442356158 -0.07681100070476532
v -0.8487949919834608 0.4646339424918223 0
v -0.8487949919834608 0.4328179442356158 -0.07681100070476532
v -0.8487949919834608 0.4646339424918223 0
v -0.7392969977989667 0.4328179442356158 -0.07681100070476532
v -0.7392969977989667 0.4646339424918223 0
vt 0 0
vt 0 0
vt 0 0
vt 0 0
vt 0 0
vt 0 0
vt 0 0
vt 0 0
vt 0 0
vt 0 0
vt 0 0
vt 0 0
vt 0 0
vt 0 0
vt 0 0
vt 0 0
vt 0 0
vt 0 0
vt 0 0
vt 0 0
vt 0 0
vt 0 0
vt 0 0
vt 0 0
vt 0 0
vt 0 0
vt 0 0
vt 0 0
vt 0 0
vt 0 0
vt 0 0
vt 0 0
vt 0 0
vt 0 0
vt 0 0
vt 0 0
vt 0 0
vt 0 0
vt 0 0
vt 0 0
vt 0 0
vt 0 0
vt 0 0
vt 0 0
vt 0 0
vt 0 0
vt 0 0
vt 0 0
vt 0 0
vt 0 0
vt 0 0
vt 0 0
vt 0 0
vt 0 0
vt 0 0
vt 0 0
vt 0 0
vt 0 0
vt 0 0
vt 0 0
vt 0 0
vt 0 0
vt 0 0
vt 0 0
vt 0 0
vt 0 0
vt 0 0
vt 0 0
vt 0 0
vt 0 0
vt 0 0
vt 0 0
vt 0 0
vt 0 0
vt 0 0
vt 0 0
vt 0 0
vt 0 0
vt 0 0
vt 0 0
vt 0 0
vt 0 0
vt 0 0
vt 0 0
vt 0 0
vt 0 0
vt 0 0
vt 0 0
vt 0 0
vt 0 0
vt 0 0
vt 0 0
vt 0 0
vt 0 0
vt 0 0
vt 0 0
vt 0 0
vt 0 0
vt 0 0
vt 0 0
vt 0 0
vt 0 0
vt 0 0
vt 0 0
vt 0 0
vt 0 0
vt 0 0
vt 0 0
vt 0 0
vt 0 0
vt 0 0
vt 0 0
vt 0 0
vt 0 0
vt 0 0
vt 0 0
vt 0 0
vt 0 0
vt 0 0
vt 0 0
vt 0 0
vt 0 0
vt 0 0
vt 0 0
vt 0 0
vt 0 0
vt 0 0
vt 0 0
vt 0 0
vt 0 0
vt 0 0
vt 0 0
vt 0 0
vt 0 0
vt 0 0
vt 0 0
vt 0 0
vt 0 0
vt 0 0
vt 0 0
vt 0 0
vt 0 0
vt 0 0
vt 0 0
vt 0 0
vt 0 0
vt 0 0
vt 0 0
vt 0 0
vt 0 0
vt 0 0
vt 0 0
vt 0 0
vt 0 0
vt 0 0
vt 0 0
vt 0 0
vt 0 0
vt 0 0
vt 0 0
vt 0 0
vt 0 0
vt 0 0
vt 0 0
vt 0 0
vt 0 0
vt 0 0
vt 0 0
vt 0 0
vt 0 0
vt 0 0
vt 0 0
vt 0 0
vt 0 0
vt 0 0
vt 0 0
vt 0 0
vt 0 0
vt 0 0
vt 0 0
vt 0 0
vt 0 0
vt 0 0
vt 0 0
vt 0 0
vt 0 0
vt 0 0
vt 0 0
vt 0 0
vt 0 0
vt 0 0
vt 0 0
vt 0 0
vt 0 0
vt 0 0
vt 0 0
vt 0 0
vt 0 0
vt 0 0
vt 0 0
vt 0 0
vt 0 0
vt 0 0
vt 0 0
vt 0 0
vt 0 0
vt 0 0
vt 0 0
vt 0 0
vt 0 0
vt 0 0
vt 0 0
vt 0 0
vt 0 0
vt 0 0
vt 0 0
vt 0 0
vt 0 0
vt 0 0
vt 0 0
vt 0 0
vt 0 0
vt 0 0
vt 0 0
vt 0 0
vt 0 0
vt 0 0
vt 0 0
vt 0 0
vt 0 0
vt 0 0
vt 0 0
vt 0 0
vt 0 0
vt 0 0
vt 0 0
vt 0 0
vt 0 0
vt 0 0
vt 0 0
vt 0 0
vt 0 0
vt 0 0
vt 0 0
vt 0 0
vt 0 0
vt 0 0
vt 0 0
vt 0 0
vt 0 0
vt 0 0
vt 0 0
vt 0 0
vt 0 0
vt 0 0
vt 0 0
vt 0 0
vt 0 0
vt 0 0
vt 0 0
vt 0 0
vt 0 0
vt 0 0
vt 0 0
vt 0 0
vt 0 0
vt 0 0
vt 0 0
vt 0 0
vt 0 0
vt 0 0
vt 0 0
vt 0 0
vt 0 0
vt 0 0
vt 0 0
vt 0 0
vt 0 0
vt 0 0
vt 0 0
vt 0 0
vt 0 0
vt 0 0
vt 0 0
vt 0 0
vt 0 0
vt 0 0
vt 0 0
vt 0 0
vt 0 0
vt 0 0
vt 0 0
vt 0 0
vt 0 0
vt 0 0
vt 0 0
vt 0 0
vt 0 0
vt 0 0
vt 0 0
vt 0 0
vt 0 0
vt 0 0
vt 0 0
vt 0 0
vt 0 0
vt 0 0
vt 0 0
vt 0 0
vt 0 0
vt 0 0
vt 0 0
vt 0 0
vt 0 0
vt 0 0
vt 0 0
vt 0 0
vt 0 0
vt 0 0
vt 0 0
vt 0 0
vt 0 0
vt 0 0
vt 0 0
vt 0 0
vt 0 0
vt 0 0
vt 0 0
vt 0 0
vt 0 0
vt 0 0
vt 0 0
vt 0 0
vt 0 0
vt 0 0
vt 0 0
vt 0 0
vt 0 0
vt 0 0
vt 0 0
vt 0 0
vt 0 0
vt 0 0
vt 0 0
vt 0 0
vt 0 0
vt 0 0
vt 0 0
vt 0 0
vt 0 0
vt 0 0
vt 0 0
vt 0 0
vt 0 0
vt 0 0
vt 0 0
vt 0 0
vt 0 0
vt 0 0
vt 0 0
vt 0 0
vt 0 0
vt 0 0
vt 0 0
vt 0 0
vt 0 0
vt 0 0
vt 0 0
vt 0 0
vt 0 0
vt 0 0
vt 0 0
vt 0 0
vt 0 0
vt 0 0
vt 0 0
vt 0 0
vt 0 0
vt 0 0
vt 0 0
vt 0 0
vt 0 0
vt 0 0
vt 0 0
vt 0 0
vt 0 0
vt 0 0
vt 0 0
vt 0 0
vt 0 0
vt 0 0
vt 0 0
vt 0 0
vt 0 0
vt 0 0
vt 0 0
vt 0 0
vt 0 0
vt 0 0
vt 0 0
vt 0 0
vt 0 0
vt 0 0
vt 0 0
vt 0 0
vt 0 0
vt 0 0
vt 0 0
vt 0 0
vt 0 0
vt 0 0
vt 0 0
vt 0 0
vt 0 0
vt 0 0
vt 0 0
vt 0 0
vt 0 0
vt 0 0
vt 0 0
vt 0 0
vt 0 0
vt 0 0
vt 0 0
vt 0 0
vt 0 0
vt 0 0
vt 0 0
vt 0 0
vt 0 0
vt 0 0
vt 0 0
vt 0 0
vt 0 0
vt 0 0
vt 0 0
vt 0 0
vt 0 0
vt 0 0
vt 0 0
vt 0 0
vt 0 0
vt 0 0
vt 0 0
vt 0 0
vt 0 0
vt 0 0
vt 0 0
vt 0 0
vt 0 0
vt 0 0
vt 0 0
vt 0 0
vt 0 0
vt 0 0
vt 0 0
vt 0 0
vt 0 0
vt 0 0
vt 0 0
vt 0 0
vt 0 0
vt 0 0
vt 0 0
vt 0 0
vt 0 0
vt 0 0
vt 0 0
vt 0 0
vt 0 0
vt 0 0
vt 0 0
vt 0 0
vt 0 0
vt 0 0
vt 0 0
vt 0 0
vt 0 0
vt 0 0
vt 0 0
vt 0 0
vt 0 0
vt 0 0
vt 0 0
vt 0 0
vt 0 0
vt 0 0
vt 0 0
vt 0 0
vt 0 0
vt 0 0
vt 0 0
vt 0 0
vt 0 0
vt 0 0
vt 0 0
vt 0 0
vt 0 0
vt 0 0
vt 0 0
vt 0 0
vt 0 0
vt 0 0
vt 0 0
vt 0 0
vt 0 0
vt 0 0
vt 0 0
vt 0 0
vt 0 0
vt 0 0
vt 0 0
vt 0 0
vt 0 0
vt 0 0
vt 0 0
vt 0 0
vt 0 0
vt 0 0
vt 0 0
vt 0 0
vt 0 0
vt 0 0
vt 0 0
vt 0 0
vt 0 0
vt 0 0
vt 0 0
vt 0 0
vt 0 0
vt 0 0
vt 0 0
vt 0 0
vt 0 0
vn -0.9474375984441477 -0.22623217836371784 -0.22623217836371784
vn -0.9474053104463444 0.0004890853400871327 -0.3200358394517654
vn -0.9474053104463444 0.0004890853400871327 -0.3200358394517654
vn -0.9474375984441477 0.22623217836371784 -0.22623217836371784
vn -0.9474053104463444 0.0004890853400871327 -0.3200358394517654
vn -0.9474053104463444 0.0004890853400871327 -0.3200358394517654
vn -0.9474053104463444 0.0004890853400871327 -0.3200358394517654
vn -0.9474375984441477 -0.22623217836371784 -0.22623217836371784
vn -0.9474375984441477 -0.22623217836371784 -0.22623217836371784
vn -0.9474053104463444 0.0004890853400871327 -0.3200358394517654
vn -0.9474375984441477 0.22623217836371784 -0.22623217836371784
vn -0.9474375984441477 0.22623217836371784 -0.22623217836371784
vn -0.9474053104463444 -0.3200358394517654 0.0004890853400871327
vn -0.9474375984441477 -0.22623217836371784 -0.22623217836371784
vn -0.9474375984441477 -0.22623217836371784 -0.22623217836371784
vn -0.9474050031625051 0.32003674910600344 0.0004890851814559541
vn -0.9474375984441477 0.22623217836371784 -0.22623217836371784
vn -0.9474375984441477 0.22623217836371784 -0.22623217836371784
vn -0.9474375984441477 -0.22623217836371784 -0.22623217836371784
vn -0.9474053104463444 -0.3200358394517654 0.0004890853400871327
vn -0.9474053104463444 -0.3200358394517654 0.0004890853400871327
vn -0.9474375984441477 0.22623217836371784 -0.22623217836371784
vn -0.9474050031625051 0.32003674910600344 0.0004890851814559541
vn -0.9474050031625051 0.32003674910600344 0.0004890851814559541
vn -0.9474053104463444 -0.3200358394517654 0.0004890853400871327
vn -0.9474375984441477 -0.22623217836371784 0.22623217836371784
vn -0.9474053104463444 -0.3200358394517654 0.0004890853400871327
vn -0.9474375984441477 0.22623217836371784 0.22623217836371784
vn -0.9474050031625051 0.32003674910600344 0.0004890851814559541
vn -0.9474050031625051 0.32003674910600344 0.0004890851814559541
vn -0.9474053104463444 -0.3200358394517654 0.0004890853400871327
vn -0.9474375984441477 -0.22623217836371784 0.22623217836371784
vn -0.9474375984441477 -0.22623217836371784 0.22623217836371784
vn -0.9474375984441477 0.22623217836371784 0.22623217836371784
vn -0.9474050031625051 0.32003674910600344 0.0004890851814559541
vn -0.9474375984441477 0.22623217836371784 0.22623217836371784
vn -0.9474050031625051 0.0004890851814559541 0.32003674910600344
vn -0.9474375984441477 -0.22623217836371784 0.22623217836371784
vn -0.9474375984441477 -0.22623217836371784 0.22623217836371784
vn -0.9474050031625051 0.0004890851814559541 0.32003674910600344
vn -0.9474375984441477 0.22623217836371784 0.22623217836371784
vn -0.9474375984441477 0.22623217836371784 0.22623217836371784
vn -0.9474375984441477 -0.22623217836371784 0.22623217836371784
vn -0.9474050031625051 0.0004890851814559541 0.32003674910600344
vn -0.9474050031625051 0.0004890851814559541 0.32003674910600344
vn -0.9474375984441477 0.22623217836371784 0.22623217836371784
vn -0.9474050031625051 0.0004890851814559541 0.32003674910600344
vn -0.9474050031625051 0.0004890851814559541 0.32003674910600344
vn 0.83690535937972 -0.4655986978792967 -0.28776252705070027
vn 0.8690726086647299 -0.16169917335450282 -0.46751061828064583
vn 0.8375594391504444 -0.45955898339655343 -0.2954652715117623
vn 0.8690726086647299 -0.16169917335450282 -0.46751061828064583
vn 0.83690535937972 -0.4655986978792967 -0.28776252705070027
vn 0.8670216371495997 -0.18024292244297457 -0.46452768445340675
vn 0.8269810233234927 -0.5622296221205317 0.0004889509515693344
vn 0.83690535937972 -0.4655986978792967 -0.28776252705070027
vn 0.8375594391504444 -0.45955898339655343 -0.2954652715117623
vn 0.9075198541387473 0.20769853911959693 -0.3650603117179029
vn 0.8690726086647299 -0.16169917335450282 -0.46751061828064583
vn 0.8670216371495997 -0.18024292244297457 -0.46452768445340675
vn 0.8269810233234927 -0.5622296221205317 0.0004889509515693344
vn 0.8375594391504444 -0.45955898339655343 -0.2954652715117623
vn 0.8269810233234927 -0.5622296221205317 0.0004889509515693344
vn 0.8670216371495997 -0.18024292244297457 -0.46452768445340675
vn 0.9058943926157076 0.1938757377854518 -0.3765203151565196
vn 0.9075198541387473 0.20769853911959693 -0.3650603117179029
vn 0.8375591958425256 -0.45955884989636875 0.2954661688612567
vn 0.8269810233234927 -0.5622296221205317 0.0004889509515693344
vn 0.8269810233234927 -0.5622296221205317 0.0004889509515693344
vn 0.9247588760272295 0.3805532578924532 0.0004889951889250234
vn 0.9075198541387473 0.20769853911959693 -0.3650603117179029
vn 0.9058943926157076 0.1938757377854518 -0.3765203151565196
vn 0.8269810233234927 -0.5622296221205317 0.0004889509515693344
vn 0.8375591958425256 -0.45955884989636875 0.2954661688612567
vn 0.83690535937972 -0.4655986978792967 0.28776252705070027
vn 0.9075198541387473 0.20769853911959693 -0.3650603117179029
vn 0.9247588760272295 0.3805532578924532 0.0004889951889250234
vn 0.9247588760272295 0.3805532578924532 0.0004889951889250234
vn 0.8690726086647299 -0.16169917335450282 0.46751061828064583
vn 0.83690535937972 -0.4655986978792967 0.28776252705070027
vn 0.8375591958425256 -0.45955884989636875 0.2954661688612567
vn 0.9247588760272295 0.3805532578924532 0.0004889951889250234
vn 0.9071958005873106 0.20762437495787314 0.36590695309067467
vn 0.9247588760272295 0.3805532578924532 0.0004889951889250234
vn 0.83690535937972 -0.4655986978792967 0.28776252705070027
vn 0.8690726086647299 -0.16169917335450282 0.46751061828064583
vn 0.8670216371495997 -0.18024292244297457 0.46452768445340675
vn 0.9071958005873106 0.20762437495787314 0.36590695309067467
vn 0.8670216371495997 -0.18024292244297457 0.46452768445340675
vn 0.8690726086647299 -0.16169917335450282 0.46751061828064583
vn 0.9247588760272295 0.3805532578924532 0.0004889951889250234
vn 0.9058943926157076 0.1938757377854518 0.3765203151565196
vn 0.9071958005873106 0.20762437495787314 0.36590695309067467
vn 0.8670216371495997 -0.18024292244297457 0.46452768445340675
vn 0.9071958005873106 0.20762437495787314 0.36590695309067467
vn 0.9058943926157076 0.1938757377854518 0.3765203151565196
vn -0.5456630137292844 -0.5925588052876587 -0.5925588052876587
vn -0.5457613616605304 -0.8379405091792071 0.0004890755919964723
vn -0.5457613616605304 -0.8379405091792071 0.0004890755919964723
vn -0.5456630137292844 -0.5925588052876587 0.5925588052876587
vn -0.5457613616605304 -0.8379405091792071 0.0004890755919964723
vn -0.5457613616605304 -0.8379405091792071 0.0004890755919964723
vn -0.5457613616605304 -0.8379405091792071 0.0004890755919964723
vn -0.5456630137292844 -0.5925588052876587 -0.5925588052876587
vn -0.5456630137292844 -0.5925588052876587 -0.5925588052876587
vn -0.5457613616605304 -0.8379405091792071 0.0004890755919964723
vn -0.5456630137292844 -0.5925588052876587 0.5925588052876587
vn -0.5456630137292844 -0.5925588052876587 0.5925588052876587
vn -0.5457613616605304 0.0004890755919964723 -0.8379405091792071
vn -0.5456630137292844 -0.5925588052876587 -0.5925588052876587
vn -0.5456630137292844 -0.5925588052876587 -0.5925588052876587
vn -0.5457613616605304 0.0004890755919964723 0.8379405091792071
vn -0.5456630137292844 -0.5925588052876587 0.5925588052876587
vn -0.5456630137292844 -0.5925588052876587 0.5925588052876587
vn -0.5456630137292844 -0.5925588052876587 -0.5925588052876587
vn -0.5457613616605304 0.0004890755919964723 -0.8379405091792071
vn -0.5457613616605304 0.0004890755919964723 -0.8379405091792071
vn -0.5456630137292844 -0.5925588052876587 0.5925588052876587
vn -0.5457613616605304 0.0004890755919964723 0.8379405091792071
vn -0.5457613616605304 0.0004890755919964723 0.8379405091792071
vn -0.5456630137292844 0.5925588052876587 -0.5925588052876587
vn -0.5457613616605304 0.0004890755919964723 -0.8379405091792071
vn -0.5457613616605304 0.0004890755919964723 -0.8379405091792071
vn -0.5456630137292844 0.5925588052876587 0.5925588052876587
vn -0.5457613616605304 0.0004890755919964723 0.8379405091792071
vn -0.5457613616605304 0.0004890755919964723 0.8379405091792071
vn -0.5457613616605304 0.0004890755919964723 -0.8379405091792071
vn -0.5456630137292844 0.5925588052876587 -0.5925588052876587
vn -0.5456630137292844 0.5925588052876587 -0.5925588052876587
vn -0.5457613616605304 0.0004890755919964723 0.8379405091792071
vn -0.5456630137292844 0.5925588052876587 0.5925588052876587
vn -0.5456630137292844 0.5925588052876587 0.5925588052876587
vn -0.5456630137292844 0.5925588052876587 -0.5925588052876587
vn -0.5457613616605304 0.8379405091792071 0.0004890755919964723
vn -0.5456630137292844 0.5925588052876587 -0.5925588052876587
vn -0.5457613616605304 0.8379405091792071 0.0004890755919964723
vn -0.5456630137292844 0.5925588052876587 0.5925588052876587
vn -0.5456630137292844 0.5925588052876587 0.5925588052876587
vn -0.5457613616605304 0.8379405091792071 0.0004890755919964723
vn -0.5456630137292844 0.5925588052876587 -0.5925588052876587
vn -0.5457613616605304 0.8379405091792071 0.0004890755919964723
vn -0.5456630137292844 0.5925588052876587 0.5925588052876587
vn -0.5457613616605304 0.8379405091792071 0.0004890755919964723
vn -0.5457613616605304 0.8379405091792071 0.0004890755919964723
vn 0.4322983869439347 -0.665787927490899 0.6081484524793642
vn 0.457828160934982 -0.12655053927033846 0.8799876908600932
vn 0.4303717660014442 -0.6990488721152333 0.5710611328248653
vn 0.41946116012651824 -0.9077731524047952 0.000488792773719167
vn 0.4322983869439347 -0.665787927490899 0.6081484524793642
vn 0.4303717660014442 -0.6990488721152333 0.5710611328248653
vn 0.457828160934982 -0.12655053927033846 0.8799876908600932
vn 0.4322983869439347 -0.665787927490899 0.6081484524793642
vn 0.4605483607799984 -0.046396343847202176 0.8864212241708052
vn 0.4322983869439347 -0.665787927490899 0.6081484524793642
vn 0.41946116012651824 -0.9077731524047952 0.000488792773719167
vn 0.41946116012651824 -0.9077731524047952 0.000488792773719167
vn 0.4605483607799984 -0.046396343847202176 0.8864212241708052
vn 0.48389980284582274 0.5542143827981064 0.6772646445116471
vn 0.457828160934982 -0.12655053927033846 0.8799876908600932
vn 0.41946116012651824 -0.9077731524047952 0.000488792773719167
vn 0.4322983869439347 -0.665787927490899 -0.6081484524793642
vn 0.41946116012651824 -0.9077731524047952 0.000488792773719167
vn 0.48389980284582274 0.5542143827981064 0.6772646445116471
vn 0.4605483607799984 -0.046396343847202176 0.8864212241708052
vn 0.48591138845699694 0.6001863980651929 0.6353474719752359
vn 0.4322983869439347 -0.665787927490899 -0.6081484524793642
vn 0.41946116012651824 -0.9077731524047952 0.000488792773719167
vn 0.4303717660014442 -0.6990488721152333 -0.5710611328248653
vn 0.4940851570306526 0.8694133759586821 0.0004891892503706803
vn 0.48389980284582274 0.5542143827981064 0.6772646445116471
vn 0.48591138845699694 0.6001863980651929 0.6353474719752359
vn 0.457828160934982 -0.12655053927033846 -0.8799876908600932
vn 0.4322983869439347 -0.665787927490899 -0.6081484524793642
vn 0.4303717660014442 -0.6990488721152333 -0.5710611328248653
vn 0.48591138845699694 0.6001863980651929 0.6353474719752359
vn 0.4940851570306526 0.8694133759586821 0.0004891892503706803
vn 0.4940851570306526 0.8694133759586821 0.0004891892503706803
vn 0.4322983869439347 -0.665787927490899 -0.6081484524793642
vn 0.457828160934982 -0.12655053927033846 -0.8799876908600932
vn 0.4605483607799984 -0.046396343847202176 -0.8864212241708052
vn 0.48591138845699694 0.6001863980651929 -0.6353474719752359
vn 0.4940851570306526 0.8694133759586821 0.0004891892503706803
vn 0.4940851570306526 0.8694133759586821 0.0004891892503706803
vn 0.48389980284582274 0.5542143827981064 -0.6772646445116471
vn 0.4605483607799984 -0.046396343847202176 -0.8864212241708052
vn 0.457828160934982 -0.12655053927033846 -0.8799876908600932
vn 0.4940851570306526 0.8694133759586821 0.0004891892503706803
vn 0.48591138845699694 0.6001863980651929 -0.6353474719752359
vn 0.48389980284582274 0.5542143827981064 -0.6772646445116471
vn 0.4605483607799984 -0.046396343847202176 -0.8864212241708052
vn 0.48389980284582274 0.5542143827981064 -0.6772646445116471
vn 0.48591138845699694 0.6001863980651929 -0.6353474719752359
vn 0.0004889998812668338 0.0004889998812668338 -0.9999997608790875
vn 0.0004889998812668338 0.0004889998812668338 -0.9999997608790875
vn 0.0004889998812668338 0.0004889998812668338 -0.9999997608790875
vn 0.0004889998812668338 0.0004889998812668338 -0.9999997608790875
vn 0.0004889998812668338 0.0004889998812668338 -0.9999997608790875
vn 0.0004889998812668338 0.0004889998812668338 -0.9999997608790875
vn 0.0004889998812668338 0.0004889998812668338 -0.9999997608790875
vn 0.0004889998812668338 0.0004889998812668338 -0.9999997608790875
vn 0.0004889998812668338 0.0004889998812668338 -0.9999997608790875
vn 0.0004889998812668338 0.0004889998812668338 -0.9999997608790875
vn 0.0004889998812668338 0.0004889998812668338 -0.9999997608790875
vn 0.0004889998812668338 0.0004889998812668338 -0.9999997608790875
vn 0.0004889998812668338 0.0004889998812668338 -0.9999997608790875
vn 0.0004889998812668338 0.0004889998812668338 -0.9999997608790875
vn 0.0004889998812668338 0.0004889998812668338 -0.9999997608790875
vn 0.0004889998812668338 0.0004889998812668338 -0.9999997608790875
vn 0.0004889998812668338 0.0004889998812668338 -0.9999997608790875
vn 0.0004889998812668338 0.0004889998812668338 -0.9999997608790875
vn 0.0004889998812668338 0.0004889998812668338 0.9999997608790875
vn 0.0004889998812668338 0.0004889998812668338 0.9999997608790875
vn 0.0004889998812668338 0.0004889998812668338 0.9999997608790875
vn 0.0004889998812668338 0.0004889998812668338 0.9999997608790875
vn 0.0004889998812668338 0.0004889998812668338 0.9999997608790875
vn 0.0004889998812668338 0.0004889998812668338 0.9999997608790875
vn 0.0004889998812668338 0.0004889998812668338 0.9999997608790875
vn 0.0004889998812668338 0.0004889998812668338 0.9999997608790875
vn 0.0004889998812668338 0.0004889998812668338 0.9999997608790875
vn 0.0004889998812668338 0.0004889998812668338 0.9999997608790875
vn 0.0004889998812668338 0.0004889998812668338 0.9999997608790875
vn 0.0004889998812668338 0.0004889998812668338 0.9999997608790875
vn 0.0004889998812668338 0.0004889998812668338 0.9999997608790875
vn 0.0004889998812668338 0.0004889998812668338 0.9999997608790875
vn 0.0004889998812668338 0.0004889998812668338 0.9999997608790875
vn 0.0004889998812668338 0.0004889998812668338 0.9999997608790875
vn 0.0004889998812668338 0.0004889998812668338 0.9999997608790875
vn 0.0004889998812668338 0.0004889998812668338 0.9999997608790875
vn 0.0004889998812668338 0.9999997608790875 0.0004889998812668338
vn 0.0004889998812668338 0.9999997608790875 0.0004889998812668338
vn 0.0004889998812668338 0.9999997608790875 0.0004889998812668338
vn 0.0004889998812668338 0.9999997608790875 0.0004889998812668338
vn 0.0004889998812668338 0.9999997608790875 0.0004889998812668338
vn 0.0004889998812668338 0.9999997608790875 0.0004889998812668338
vn 0.0004889998812668338 0.9999997608790875 0.0004889998812668338
vn 0.0004889998812668338 0.9999997608790875 0.0004889998812668338
vn 0.0004889998812668338 0.9999997608790875 0.0004889998812668338
vn 0.0004889998812668338 0.9999997608790875 0.0004889998812668338
vn 0.0004889998812668338 0.9999997608790875 0.0004889998812668338
vn 0.0004889998812668338 0.9999997608790875 0.0004889998812668338
vn 0.0004889998812668338 0.9999997608790875 0.0004889998812668338
vn 0.0004889998812668338 0.9999997608790875 0.0004889998812668338
vn 0.0004889998812668338 0.9999997608790875 0.0004889998812668338
vn 0.0004889998812668338 0.9999997608790875 0.0004889998812668338
vn 0.0004889998812668338 0.9999997608790875 0.0004889998812668338
vn 0.0004889998812668338 0.9999997608790875 0.0004889998812668338
vn -0.7071066965921884 0.7071066965921884 0.0004891512708614789
vn 0.0004889998812668338 0.9999997608790875 0.0004889998812668338
vn 0.0004889998812668338 0.9999997608790875 0.0004889998812668338
vn 0.7071066965921884 0.7071066965921884 0.0004891512708614789
vn 0.0004889998812668338 0.9999997608790875 0.0004889998812668338
vn 0.0004889998812668338 0.9999997608790875 0.0004889998812668338
vn 0.0004889998812668338 0.9999997608790875 0.0004889998812668338
vn -0.7071066965921884 0.7071066965921884 0.0004891512708614789
vn -0.7071066965921884 0.7071066965921884 0.0004891512708614789
vn 0.0004889998812668338 0.9999997608790875 0.0004889998812668338
vn 0.7071066965921884 0.7071066965921884 0.0004891512708614789
vn 0.7071066965921884 0.7071066965921884 0.0004891512708614789
vn -0.9999997608790875 0.0004889998812668338 0.0004889998812668338
vn -0.7071066965921884 0.7071066965921884 0.0004891512708614789
vn -0.7071066965921884 0.7071066965921884 0.0004891512708614789
vn 0.9999997608790875 0.0004889998812668338 0.0004889998812668338
vn 0.7071066965921884 0.7071066965921884 0.0004891512708614789
vn 0.7071066965921884 0.7071066965921884 0.0004891512708614789
vn -0.7071066965921884 0.7071066965921884 0.0004891512708614789
vn -0.9999997608790875 0.0004889998812668338 0.0004889998812668338
vn -0.9999997608790875 0.0004889998812668338 0.0004889998812668338
vn 0.7071066965921884 0.7071066965921884 0.0004891512708614789
vn 0.9999997608790875 0.0004889998812668338 0.0004889998812668338
vn 0.9999997608790875 0.0004889998812668338 0.0004889998812668338
vn -0.7071066965921884 -0.7071066965921884 0.0004891512708614789
vn -0.9999997608790875 0.0004889998812668338 0.0004889998812668338
vn -0.9999997608790875 0.0004889998812668338 0.0004889998812668338
vn 0.7071066965921884 -0.7071066965921884 0.0004891512708614789
vn 0.9999997608790875 0.0004889998812668338 0.0004889998812668338
vn 0.9999997608790875 0.0004889998812668338 0.0004889998812668338
vn -0.9999997608790875 0.0004889998812668338 0.0004889998812668338
vn -0.7071066965921884 -0.7071066965921884 0.0004891512708614789
vn -0.7071066965921884 -0.7071066965921884 0.0004891512708614789
vn 0.9999997608790875 0.0004889998812668338 0.0004889998812668338
vn 0.7071066965921884 -0.7071066965921884 0.0004891512708614789
vn 0.7071066965921884 -0.7071066965921884 0.0004891512708614789
vn 0.0004889998812668338 -0.9999997608790875 0.0004889998812668338
vn -0.7071066965921884 -0.7071066965921884 0.0004891512708614789
vn -0.7071066965921884 -0.7071066965921884 0.0004891512708614789
vn 0.0004889998812668338 -0.9999997608790875 0.0004889998812668338
vn 0.7071066965921884 -0.7071066965921884 0.0004891512708614789
vn 0.7071066965921884 -0.7071066965921884 0.0004891512708614789
vn -0.7071066965921884 -0.7071066965921884 0.0004891512708614789
vn 0.0004889998812668338 -0.9999997608790875 0.0004889998812668338
vn 0.0004889998812668338 -0.9999997608790875 0.0004889998812668338
vn 0.7071066965921884 -0.7071066965921884 0.0004891512708614789
vn 0.0004889998812668338 -0.9999997608790875 0.0004889998812668338
vn 0.0004889998812668338 -0.9999997608790875 0.0004889998812668338
vn 0.0004889827017290132 -0.6882996278330819 -0.7254263458275819
vn 0.0004888822725074746 -0.049328120015780005 -0.9987825076410942
vn 0.0004888822725074746 0.049328120015780005 -0.9987825076410942
vn 0.0004889827017290132 0.6882996278330819 -0.7254263458275819
vn 0.0004888822725074746 0.049328120015780005 -0.9987825076410942
vn 0.0004888822725074746 -0.049328120015780005 -0.9987825076410942
vn 0.0004888822725074746 -0.049328120015780005 -0.9987825076410942
vn 0.0004889827017290132 -0.6882996278330819 -0.7254263458275819
vn 0.000489054587006018 -0.736281205854658 -0.6766755106628447
vn 0.0004888822725074746 0.049328120015780005 -0.9987825076410942
vn 0.0004889827017290132 0.6882996278330819 -0.7254263458275819
vn 0.000489054587006018 0.736281205854658 -0.6766755106628447
vn 0.0004889998812668338 -0.9999997608790875 0.0004889998812668338
vn 0.000489054587006018 -0.736281205854658 -0.6766755106628447
vn 0.0004889827017290132 -0.6882996278330819 -0.7254263458275819
vn 0.0004889998812668338 0.9999997608790875 0.0004889998812668338
vn 0.000489054587006018 0.736281205854658 -0.6766755106628447
vn 0.0004889827017290132 0.6882996278330819 -0.7254263458275819
vn 0.000489054587006018 -0.736281205854658 -0.6766755106628447
vn 0.0004889998812668338 -0.9999997608790875 0.0004889998812668338
vn 0.0004889998812668338 -0.9999997608790875 0.0004889998812668338
vn 0.000489054587006018 0.736281205854658 -0.6766755106628447
vn 0.0004889998812668338 0.9999997608790875 0.0004889998812668338
vn 0.0004889998812668338 0.9999997608790875 0.0004889998812668338
vn 0.0004889998812668338 -0.9999997608790875 0.0004889998812668338
vn 0.000489054587006018 -0.736281205854658 0.6766755106628447
vn 0.0004889998812668338 -0.9999997608790875 0.0004889998812668338
vn 0.0004889998812668338 0.9999997608790875 0.0004889998812668338
vn 0.0004889998812668338 0.9999997608790875 0.0004889998812668338
vn 0.000489054587006018 0.736281205854658 0.6766755106628447
vn 0.000489054587006018 -0.736281205854658 0.6766755106628447
vn 0.0004889998812668338 -0.9999997608790875 0.0004889998812668338
vn 0.0004889827017290132 -0.6882996278330819 0.7254263458275819
vn 0.0004889998812668338 0.9999997608790875 0.0004889998812668338
vn 0.0004889827017290132 0.6882996278330819 0.7254263458275819
vn 0.000489054587006018 0.736281205854658 0.6766755106628447
vn 0.0004889827017290132 -0.6882996278330819 0.7254263458275819
vn 0.0004888822725074746 -0.049328120015780005 0.9987825076410942
vn 0.000489054587006018 -0.736281205854658 0.6766755106628447
vn 0.0004889827017290132 0.6882996278330819 0.7254263458275819
vn 0.0004888822725074746 0.049328120015780005 0.9987825076410942
vn 0.000489054587006018 0.736281205854658 0.6766755106628447
vn 0.0004888822725074746 -0.049328120015780005 0.9987825076410942
vn 0.0004889827017290132 -0.6882996278330819 0.7254263458275819
vn 0.0004888822725074746 0.049328120015780005 0.9987825076410942
vn 0.0004888822725074746 0.049328120015780005 0.9987825076410942
vn 0.0004889827017290132 0.6882996278330819 0.7254263458275819
vn 0.0004888822725074746 -0.049328120015780005 0.9987825076410942
vn 0.0004891512708614789 0.7071066965921884 -0.7071066965921884
vn 0.0004889998812668338 0.9999997608790875 0.0004889998812668338
vn 0.0004891512708614789 0.7071066965921884 -0.7071066965921884
vn 0.0004889998812668338 0.9999997608790875 0.0004889998812668338
vn 0.0004891512708614789 0.7071066965921884 -0.7071066965921884
vn 0.0004889998812668338 0.9999997608790875 0.0004889998812668338
vn 0.0004891512708614789 0.7071066965921884 -0.7071066965921884
vn 0.0004891512708614789 0.7071066965921884 -0.7071066965921884
vn 0.0004889998812668338 0.0004889998812668338 -0.9999997608790875
vn 0.0004889998812668338 0.9999997608790875 0.0004889998812668338
vn 0.0004891512708614789 0.7071066965921884 0.7071066965921884
vn 0.0004889998812668338 0.9999997608790875 0.0004889998812668338
vn 0.0004891512708614789 0.7071066965921884 -0.7071066965921884
vn 0.0004889998812668338 0.0004889998812668338 -0.9999997608790875
vn 0.0004889998812668338 0.0004889998812668338 -0.9999997608790875
vn 0.0004891512708614789 0.7071066965921884 0.7071066965921884
vn 0.0004889998812668338 0.9999997608790875 0.0004889998812668338
vn 0.0004891512708614789 0.7071066965921884 0.7071066965921884
vn 0.0004889998812668338 0.0004889998812668338 -0.9999997608790875
vn 0.0004889998812668338 0.0004889998812668338 -0.9999997608790875
vn 0.0004891512708614789 -0.7071066965921884 -0.7071066965921884
vn 0.0004889998812668338 0.0004889998812668338 0.9999997608790875
vn 0.0004891512708614789 0.7071066965921884 0.7071066965921884
vn 0.0004891512708614789 0.7071066965921884 0.7071066965921884
vn 0.0004889998812668338 0.0004889998812668338 -0.9999997608790875
vn 0.0004891512708614789 -0.7071066965921884 -0.7071066965921884
vn 0.0004891512708614789 -0.7071066965921884 -0.7071066965921884
vn 0.0004889998812668338 0.0004889998812668338 0.9999997608790875
vn 0.0004889998812668338 0.0004889998812668338 0.9999997608790875
vn 0.0004891512708614789 0.7071066965921884 0.7071066965921884
vn 0.0004891512708614789 -0.7071066965921884 -0.7071066965921884
vn 0.0004891512708614789 -0.7071066965921884 -0.7071066965921884
vn 0.0004889998812668338 -0.9999997608790875 0.0004889998812668338
vn 0.0004891512708614789 -0.7071066965921884 0.7071066965921884
vn 0.0004889998812668338 0.0004889998812668338 0.9999997608790875
vn 0.0004889998812668338 0.0004889998812668338 0.9999997608790875
vn 0.0004891512708614789 -0.7071066965921884 -0.7071066965921884
vn 0.0004889998812668338 -0.9999997608790875 0.0004889998812668338
vn 0.0004889998812668338 -0.9999997608790875 0.0004889998812668338
vn 0.0004891512708614789 -0.7071066965921884 0.7071066965921884
vn 0.0004891512708614789 -0.7071066965921884 0.7071066965921884
vn 0.0004889998812668338 0.0004889998812668338 0.9999997608790875
vn 0.0004889998812668338 -0.9999997608790875 0.0004889998812668338
vn 0.0004891512708614789 -0.7071066965921884 0.7071066965921884
vn 0.0004891512708614789 -0.7071066965921884 0.7071066965921884
vn 0.0004889998812668338 -0.9999997608790875 0.0004889998812668338
vn 0.0004889998812668338 -0.9999997608790875 0.0004889998812668338
vn 0.0004891512708614789 -0.7071066965921884 0.7071066965921884
vn -0.06885206477561552 -0.9976267609963032 0.000488794598294651
vn -0.06885206477561552 -0.9976267609963032 0.000488794598294651
vn -0.05129048877426032 -0.7273420369496549 0.6843557898105518
vn -0.05129048877426032 -0.7273420369496549 -0.6843557898105518
vn -0.06885206477561552 -0.9976267609963032 0.000488794598294651
vn -0.06885206477561552 -0.9976267609963032 0.000488794598294651
vn -0.05029822722279391 -0.717354004181573 0.694890869865843
vn -0.05129048877426032 -0.7273420369496549 0.6843557898105518
vn -0.06885206477561552 -0.9976267609963032 0.000488794598294651
vn -0.06885206477561552 -0.9976267609963032 0.000488794598294651
vn -0.05129048877426032 -0.7273420369496549 -0.6843557898105518
vn -0.05029822722279391 -0.717354004181573 -0.694890869865843
vn -0.05129048877426032 -0.7273420369496549 0.6843557898105518
vn -0.05029822722279391 -0.717354004181573 0.694890869865843
vn -0.0014664980045388874 -0.035674113939784896 0.9993624002223687
vn -0.0014664980045388874 -0.035674113939784896 -0.9993624002223687
vn -0.05029822722279391 -0.717354004181573 -0.694890869865843
vn -0.05129048877426032 -0.7273420369496549 -0.6843557898105518
vn 0.0004889112156172328 -0.019048541645206356 0.9998184405315867
vn -0.0014664980045388874 -0.035674113939784896 0.9993624002223687
vn -0.05029822722279391 -0.717354004181573 0.694890869865843
vn -0.05029822722279391 -0.717354004181573 -0.694890869865843
vn -0.0014664980045388874 -0.035674113939784896 -0.9993624002223687
vn 0.0004889112156172328 -0.019048541645206356 -0.9998184405315867
vn 0.06104290987100935 0.6919816044385015 0.7193297034553745
vn -0.0014664980045388874 -0.035674113939784896 0.9993624002223687
vn 0.0004889112156172328 -0.019048541645206356 0.9998184405315867
vn 0.06104290987100935 0.6919816044385015 -0.7193297034553745
vn 0.0004889112156172328 -0.019048541645206356 -0.9998184405315867
vn -0.0014664980045388874 -0.035674113939784896 -0.9993624002223687
vn 0.06109223305491887 0.6974288819578577 0.7140453022542592
vn 0.06104290987100935 0.6919816044385015 0.7193297034553745
vn 0.0004889112156172328 -0.019048541645206356 0.9998184405315867
vn 0.0004889112156172328 -0.019048541645206356 -0.9998184405315867
vn 0.06104290987100935 0.6919816044385015 -0.7193297034553745
vn 0.06109223305491887 0.6974288819578577 -0.7140453022542592
vn 0.06109223305491887 0.6974288819578577 0.7140453022542592
vn 0.09035940074857865 0.995909102108809 0.0004889101997013713
vn 0.06104290987100935 0.6919816044385015 0.7193297034553745
vn 0.09035940074857865 0.995909102108809 0.0004889101997013713
vn 0.06109223305491887 0.6974288819578577 -0.7140453022542592
vn 0.06104290987100935 0.6919816044385015 -0.7193297034553745
vn 0.09035940074857865 0.995909102108809 0.0004889101997013713
vn 0.06109223305491887 0.6974288819578577 0.7140453022542592
vn 0.09035940074857865 0.995909102108809 0.0004889101997013713
vn 0.06109223305491887 0.6974288819578577 -0.7140453022542592
vn 0.09035940074857865 0.995909102108809 0.0004889101997013713
vn 0.09035940074857865 0.995909102108809 0.0004889101997013713
vn -0.7071066965921884 0.0004891512708614789 -0.7071066965921884
vn -0.7071066965921884 0.0004891512708614789 -0.7071066965921884
vn 0.0004889998812668338 0.0004889998812668338 -0.9999997608790875
vn -0.7071066965921884 0.0004891512708614789 -0.7071066965921884
vn -0.7071066965921884 0.0004891512708614789 -0.7071066965921884
vn -0.9999997608790875 0.0004889998812668338 0.0004889998812668338
vn 0.0004889998812668338 0.0004889998812668338 -0.9999997608790875
vn 0.0004889998812668338 0.0004889998812668338 -0.9999997608790875
vn -0.7071066965921884 0.0004891512708614789 -0.7071066965921884
vn -0.7071066965921884 0.0004891512708614789 -0.7071066965921884
vn -0.9999997608790875 0.0004889998812668338 0.0004889998812668338
vn -0.9999997608790875 0.0004889998812668338 0.0004889998812668338
vn 0.0004889998812668338 0.0004889998812668338 -0.9999997608790875
vn 0.0004889998812668338 0.0004889998812668338 -0.9999997608790875
vn 0.7071066965921884 0.0004891512708614789 -0.7071066965921884
vn -0.9999997608790875 0.0004889998812668338 0.0004889998812668338
vn -0.9999997608790875 0.0004889998812668338 0.0004889998812668338
vn -0.7071066965921884 0.0004891512708614789 0.7071066965921884
vn 0.7071066965921884 0.0004891512708614789 -0.7071066965921884
vn 0.7071066965921884 0.0004891512708614789 -0.7071066965921884
vn 0.0004889998812668338 0.0004889998812668338 -0.9999997608790875
vn -0.9999997608790875 0.0004889998812668338 0.0004889998812668338
vn -0.7071066965921884 0.0004891512708614789 0.7071066965921884
vn -0.7071066965921884 0.0004891512708614789 0.7071066965921884
vn 0.7071066965921884 0.0004891512708614789 -0.7071066965921884
vn 0.7071066965921884 0.0004891512708614789 -0.7071066965921884
vn 0.9999997608790875 0.0004889998812668338 0.0004889998812668338
vn 0.0004889998812668338 0.0004889998812668338 0.9999997608790875
vn -0.7071066965921884 0.0004891512708614789 0.7071066965921884
vn -0.7071066965921884 0.0004891512708614789 0.7071066965921884
vn 0.7071066965921884 0.0004891512708614789 -0.7071066965921884
vn 0.9999997608790875 0.0004889998812668338 0.0004889998812668338
vn 0.9999997608790875 0.0004889998812668338 0.0004889998812668338
vn -0.7071066965921884 0.0004891512708614789 0.7071066965921884
vn 0.0004889998812668338 0.0004889998812668338 0.9999997608790875
vn 0.0004889998812668338 0.0004889998812668338 0.9999997608790875
vn 0.9999997608790875 0.0004889998812668338 0.0004889998812668338
vn 0.9999997608790875 0.0004889998812668338 0.0004889998812668338
vn 0.7071066965921884 0.0004891512708614789 0.7071066965921884
vn 0.7071066965921884 0.0004891512708614789 0.7071066965921884
vn 0.0004889998812668338 0.0004889998812668338 0.9999997608790875
vn 0.0004889998812668338 0.0004889998812668338 0.9999997608790875
vn 0.9999997608790875 0.0004889998812668338 0.0004889998812668338
vn 0.7071066965921884 0.0004891512708614789 0.7071066965921884
vn 0.7071066965921884 0.0004891512708614789 0.7071066965921884
vn 0.0004889998812668338 0.0004889998812668338 0.9999997608790875
vn 0.7071066965921884 0.0004891512708614789 0.7071066965921884
vn 0.7071066965921884 0.0004891512708614789 0.7071066965921884
vn 0.0004889998812668338 0.9999997608790875 0.0004889998812668338
vn 0.0004889998812668338 0.9999997608790875 0.0004889998812668338
vn 0.0004891512708614789 0.7071066965921884 -0.7071066965921884
vn 0.0004889998812668338 0.9999997608790875 0.0004889998812668338
vn 0.0004891512708614789 0.7071066965921884 -0.7071066965921884
vn 0.0004891512708614789 0.7071066965921884 -0.7071066965921884
vn 0.0004891512708614789 0.7071066965921884 0.7071066965921884
vn 0.0004889998812668338 0.9999997608790875 0.0004889998812668338
vn 0.0004889998812668338 0.9999997608790875 0.0004889998812668338
vn 0.0004891512708614789 0.7071066965921884 -0.7071066965921884
vn 0.0004889998812668338 0.0004889998812668338 -0.9999997608790875
vn 0.0004891512708614789 0.7071066965921884 -0.7071066965921884
vn 0.0004891512708614789 0.7071066965921884 0.7071066965921884
vn 0.0004891512708614789 0.7071066965921884 0.7071066965921884
vn 0.0004889998812668338 0.9999997608790875 0.0004889998812668338
vn 0.0004889998812668338 0.0004889998812668338 -0.9999997608790875
vn 0.0004891512708614789 0.7071066965921884 -0.7071066965921884
vn 0.0004889998812668338 0.0004889998812668338 -0.9999997608790875
vn 0.0004891512708614789 0.7071066965921884 0.7071066965921884
vn 0.0004889998812668338 0.0004889998812668338 0.9999997608790875
vn 0.0004891512708614789 0.7071066965921884 0.7071066965921884
vn 0.0004889998812668338 0.0004889998812668338 -0.9999997608790875
vn 0.0004891512708614789 -0.7071066965921884 -0.7071066965921884
vn 0.0004889998812668338 0.0004889998812668338 -0.9999997608790875
vn 0.0004889998812668338 0.0004889998812668338 0.9999997608790875
vn 0.0004891512708614789 0.7071066965921884 0.7071066965921884
vn 0.0004889998812668338 0.0004889998812668338 0.9999997608790875
vn 0.0004891512708614789 -0.7071066965921884 -0.7071066965921884
vn 0.0004889998812668338 0.0004889998812668338 -0.9999997608790875
vn 0.0004891512708614789 -0.7071066965921884 -0.7071066965921884
vn 0.0004889998812668338 0.0004889998812668338 0.9999997608790875
vn 0.0004891512708614789 -0.7071066965921884 0.7071066965921884
vn 0.0004889998812668338 0.0004889998812668338 0.9999997608790875
vn 0.0004891512708614789 -0.7071066965921884 -0.7071066965921884
vn 0.0004889998812668338 -0.9999997608790875 0.0004889998812668338
vn 0.0004891512708614789 -0.7071066965921884 -0.7071066965921884
vn 0.0004891512708614789 -0.7071066965921884 0.7071066965921884
vn 0.0004889998812668338 0.0004889998812668338 0.9999997608790875
vn 0.0004891512708614789 -0.7071066965921884 0.7071066965921884
vn 0.0004889998812668338 -0.9999997608790875 0.0004889998812668338
vn 0.0004891512708614789 -0.7071066965921884 -0.7071066965921884
vn 0.0004889998812668338 -0.9999997608790875 0.0004889998812668338
vn 0.0004891512708614789 -0.7071066965921884 0.7071066965921884
vn 0.0004889998812668338 -0.9999997608790875 0.0004889998812668338
vn 0.0004891512708614789 -0.7071066965921884 0.7071066965921884
vn 0.0004889998812668338 -0.9999997608790875 0.0004889998812668338
vn 0.0004891512708614789 -0.7071066965921884 0.7071066965921884
vn 0.0004889998812668338 -0.9999997608790875 0.0004889998812668338
f 1/1/1 2/2/2 3/3/3
f 4/4/4 5/5/5 6/6/6
f 7/7/7 8/8/8 9/9/9
f 10/10/10 11/11/11 12/12/12
f 13/13/13 14/14/14 15/15/15
f 16/16/16 17/17/17 18/18/18
f 19/19/19 20/20/20 21/21/21
f 22/22/22 23/23/23 24/24/24
f 25/25/25 26/26/26 27/27/27
f 28/28/28 29/29/29 30/30/30
f 31/31/31 32/32/32 33/33/33
f 34/34/34 35/35/35 36/36/36
f 37/37/37 38/38/38 39/39/39
f 40/40/40 41/41/41 42/42/42
f 43/43/43 44/44/44 45/45/45
f 46/46/46 47/47/47 48/48/48
f 49/49/49 50/50/50 51/51/51
f 52/52/52 53/53/53 54/54/54
f 55/55/55 56/56/56 57/57/57
f 58/58/58 59/59/59 60/60/60
f 61/61/61 62/62/62 63/63/63
f 64/64/64 65/65/65 66/66/66
f 67/67/67 68/68/68 69/69/69
f 70/70/70 71/71/71 72/72/72
f 73/73/73 74/74/74 75/75/75
f 76/76/76 77/77/77 78/78/78
f 79/79/79 80/80/80 81/81/81
f 82/82/82 83/83/83 84/84/84
f 85/85/85 86/86/86 87/87/87
f 88/88/88 89/89/89 90/90/90
f 91/91/91 92/92/92 93/93/93
f 94/94/94 95/95/95 96/96/96
f 97/97/97 98/98/98 99/99/99
f 100/100/100 101/101/101 102/102/102
f 103/103/103 104/104/104 105/105/105
f 106/106/106 107/107/107 108/108/108
f 109/109/109 110/110/110 111/111/111
f 112/112/112 113/113/113 114/114/114
f 115/115/115 116/116/116 117/117/117
f 118/118/118 119/119/119 120/120/120
f 121/121/121 122/122/122 123/123/123
f 124/124/124 125/125/125 126/126/126
f 127/127/127 128/128/128 129/129/129
f 130/130/130 131/131/131 132/132/132
f 133/133/133 134/134/134 135/135/135
f 136/136/136 137/137/137 138/138/138
f 139/139/139 140/140/140 141/141/141
f 142/142/142 143/143/143 144/144/144
f 145/145/145 146/146/146 147/147/147
f 148/148/148 149/149/149 150/150/150
f 151/151/151 152/152/152 153/153/153
f 154/154/154 155/155/155 156/156/156
f 157/157/157 158/158/158 159/159/159
f 160/160/160 161/161/161 162/162/162
f 163/163/163 164/164/164 165/165/165
f 166/166/166 167/167/167 168/168/168
f 169/169/169 170/170/170 171/171/171
f 172/172/172 173/173/173 174/174/174
f 175/175/175 176/176/176 177/177/177
f 178/178/178 179/179/179 180/180/180
f 181/181/181 182/182/182 183/183/183
f 184/184/184 185/185/185 186/186/186
f 187/187/187 188/188/188 189/189/189
f 190/190/190 191/191/191 192/192/192
f 193/193/193 194/194/194 195/195/195
f 196/196/196 197/197/197 198/198/198
f 199/199/199 200/200/200 201/201/201
f 202/202/202 203/203/203 204/204/204
f 205/205/205 206/206/206 207/207/207
f 208/208/208 209/209/209 210/210/210
f 211/211/211 212/212/212 213/213/213
f 214/214/214 215/215/215 216/216/216
f 217/217/217 218/218/218 219/219/219
f 220/220/220 221/221/221 222/222/222
f 223/223/223 224/224/224 225/225/225
f 226/226/226 227/227/227 228/228/228
f 229/229/229 230/230/230 231/231/231
f 232/232/232 233/233/233 234/234/234
f 235/235/235 236/236/236 237/237/237
f 238/238/238 239/239/239 240/240/240
f 241/241/241 242/242/242 243/243/243
f 244/244/244 245/245/245 246/246/246
f 247/247/247 248/248/248 249/249/249
f 250/250/250 251/251/251 252/252/252
f 253/253/253 254/254/254 255/255/255
f 256/256/256 257/257/257 258/258/258
f 259/259/259 260/260/260 261/261/261
f 262/262/262 263/263/263 264/264/264
f 265/265/265 266/266/266 267/267/267
f 268/268/268 269/269/269 270/270/270
f 271/271/271 272/272/272 273/273/273
f 274/274/274 275/275/275 276/276/276
f 277/277/277 278/278/278 279/279/279
f 280/280/280 281/281/281 282/282/282
f 283/283/283 284/284/284 285/285/285
f 286/286/286 287/287/287 288/288/288
f 289/289/289 290/290/290 291/291/291
f 292/292/292 293/293/293 294/294/294
f 295/295/295 296/296/296 297/297/297
f 298/298/298 299/299/299 300/300/300
f 301/301/301 302/302/302 303/303/303
f 304/304/304 305/305/305 306/306/306
f 307/307/307 308/308/308 309/309/309
f 310/310/310 311/311/311 312/312/312
f 313/313/313 314/314/314 315/315/315
f 316/316/316 317/317/317 318/318/318
f 319/319/319 320/320/320 321/321/321
f 322/322/322 323/323/323 324/324/324
f 325/325/325 326/326/326 327/327/327
f 328/328/328 329/329/329 330/330/330
f 331/331/331 332/332/332 333/333/333
f 334/334/334 335/335/335 336/336/336
f 337/337/337 338/338/338 339/339/339
f 340/340/340 341/341/341 342/342/342
f 343/343/343 344/344/344 345/345/345
f 346/346/346 347/347/347 348/348/348
f 349/349/349 350/350/350 351/351/351
f 352/352/352 353/353/353 354/354/354
f 355/355/355 356/356/356 357/357/357
f 358/358/358 359/359/359 360/360/360
f 361/361/361 362/362/362 363/363/363
f 364/364/364 365/365/365 366/366/366
f 367/367/367 368/368/368 369/369/369
f 370/370/370 371/371/371 372/372/372
f 373/373/373 374/374/374 375/375/375
f 376/376/376 377/377/377 378/378/378
f 379/379/379 380/380/380 381/381/381
f 382/382/382 383/383/383 384/384/384
f 385/385/385 386/386/386 387/387/387
f 388/388/388 389/389/389 390/390/390
f 391/391/391 392/392/392 393/393/393
f 394/394/394 395/395/395 396/396/396
f 397/397/397 398/398/398 399/399/399
f 400/400/400 401/401/401 402/402/402
f 403/403/403 404/404/404 405/405/405
f 406/406/406 407/407/407 408/408/408
f 409/409/409 410/410/410 411/411/411
f 412/412/412 413/413/413 414/414/414
f 415/415/415 416/416/416 417/417/417
f 418/418/418 419/419/419 420/420/420
f 421/421/421 422/422/422 423/423/423
f 424/424/424 425/425/425 426/426/426
f 427/427/427 428/428/428 429/429/429
f 430/430/430 431/431/431 432/432/432
f 433/433/433 434/434/434 435/435/435
f 436/436/436 437/437/437 438/438/438
f 439/439/439 440/440/440 441/441/441
f 442/442/442 443/443/443 444/444/444
f 445/445/445 446/446/446 447/447/447
f 448/448/448 449/449/449 450/450/450
f 451/451/451 452/452/452 453/453/453
f 454/454/454 455/455/455 456/456/456
f 457/457/457 458/458/458 459/459/459
f 460/460/460 461/461/461 462/462/462
f 463/463/463 464/464/464 465/465/465
f 466/466/466 467/467/467 468/468/468
f 469/469/469 470/470/470 471/471/471
f 472/472/472 473/473/473 474/474/474
f 475/475/475 476/476/476 477/477/477
f 478/478/478 479/479/479 480/480/480
f 481/481/481 482/482/482 483/483/483
f 484/484/484 485/485/485 486/486/486
f 487/487/487 488/488/488 489/489/489
f 490/490/490 491/491/491 492/492/492
f 493/493/493 494/494/494 495/495/495
f 496/496/496 497/497/497 498/498/498
f 499/499/499 500/500/500 501/501/501
f 502/502/502 503/503/503 504/504/504
f 505/505/505 506/506/506 507/507/507
f 508/508/508 509/509/509 510/510/510
f 511/511/511 512/512/512 513/513/513
f 514/514/514 515/515/515 516/516/516
f 517/517/517 518/518/518 519/519/519
f 520/520/520 521/521/521 522/522/522
f 523/523/523 524/524/524 525/525/525
f 526/526/526 527/527/527 528/528/528
f 529/529/529 530/530/530 531/531/531
f 532/532/532 533/533/533 534/534/534
